<svg xmlns="http://www.w3.org/2000/svg" xmlns:xlink="http://www.w3.org/1999/xlink" width="200" zoomAndPan="magnify" viewBox="0 0 150 149.999998" height="200" preserveAspectRatio="xMidYMid meet" version="1.0"><defs><filter x="0%" y="0%" width="100%" height="100%" id="b8c9c9674e"><feColorMatrix values="0 0 0 0 1 0 0 0 0 1 0 0 0 0 1 0 0 0 1 0" color-interpolation-filters="sRGB"/></filter><mask id="f502e455d2"><g filter="url(#b8c9c9674e)"><rect x="-15" width="180" fill="#000000" y="-15" height="179.999997" fill-opacity="0.36"/></g></mask><clipPath id="be392dd1d2"><path d="M 0.0078125 0.0078125 L 114 0.0078125 L 114 114 L 0.0078125 114 Z M 0.0078125 0.0078125 " clip-rule="nonzero"/></clipPath><clipPath id="6593778637"><path d="M 95.761719 22.800781 L 102.9375 22.800781 C 103.722656 25.007812 105.8125 26.601562 108.285156 26.601562 C 111.429688 26.601562 113.984375 24.046875 113.984375 20.902344 C 113.984375 17.761719 111.429688 15.203125 108.285156 15.203125 C 105.8125 15.203125 103.722656 16.796875 102.9375 19.003906 L 94.988281 19.003906 C 94.492188 19.003906 94.015625 19.199219 93.660156 19.542969 L 88.117188 24.945312 C 86.359375 21.496094 84.179688 18.304688 81.636719 15.433594 L 90.039062 7.605469 L 102.9375 7.605469 C 103.722656 9.8125 105.8125 11.40625 108.285156 11.40625 C 111.425781 11.40625 113.984375 8.847656 113.984375 5.707031 C 113.984375 2.5625 111.425781 0.0078125 108.285156 0.0078125 C 105.8125 0.0078125 103.722656 1.601562 102.9375 3.804688 L 89.289062 3.804688 C 88.808594 3.804688 88.34375 3.988281 87.992188 4.316406 L 79.003906 12.695312 C 70.8125 4.847656 59.710938 0.0078125 47.496094 0.0078125 C 22.359375 0.0078125 1.90625 20.460938 1.90625 45.597656 C 1.90625 56.65625 5.867188 66.804688 12.441406 74.707031 L 4.410156 82.203125 C 4.023438 82.5625 3.804688 83.0625 3.804688 83.589844 L 3.804688 99.136719 C 1.601562 99.921875 0.0078125 102.011719 0.0078125 104.484375 C 0.0078125 107.628906 2.5625 110.183594 5.707031 110.183594 C 8.847656 110.183594 11.40625 107.628906 11.40625 104.484375 C 11.40625 102.011719 9.8125 99.921875 7.605469 99.136719 L 7.605469 84.414062 L 14.992188 77.523438 C 18.15625 80.746094 21.789062 83.503906 25.785156 85.679688 L 19.578125 91.726562 C 19.210938 92.085938 19.003906 92.574219 19.003906 93.089844 L 19.003906 102.9375 C 16.796875 103.722656 15.203125 105.8125 15.203125 108.285156 C 15.203125 111.425781 17.761719 113.984375 20.902344 113.984375 C 24.046875 113.984375 26.601562 111.425781 26.601562 108.285156 C 26.601562 105.8125 25.007812 103.722656 22.800781 102.9375 L 22.800781 93.890625 L 29.421875 87.441406 C 33.859375 89.367188 38.664062 90.601562 43.699219 91.019531 L 43.699219 95.519531 L 39.300781 96.984375 C 38.523438 97.246094 38 97.96875 38 98.785156 L 38 102.9375 C 35.792969 103.722656 34.199219 105.8125 34.199219 108.285156 C 34.199219 111.425781 36.757812 113.984375 39.898438 113.984375 C 43.042969 113.984375 45.597656 111.425781 45.597656 108.285156 C 45.597656 105.8125 44.003906 103.722656 41.796875 102.9375 L 41.796875 100.15625 L 46.199219 98.6875 C 46.976562 98.433594 47.496094 97.707031 47.496094 96.886719 L 47.496094 91.1875 C 52.847656 91.1875 58.058594 90.269531 63.023438 88.46875 C 63.808594 92.820312 66.066406 96.789062 69.53125 99.675781 L 86.171875 113.542969 C 86.523438 113.835938 86.957031 113.984375 87.390625 113.984375 C 87.824219 113.984375 88.253906 113.835938 88.605469 113.542969 L 105.25 99.675781 C 109.59375 96.054688 112.085938 90.734375 112.085938 85.082031 L 112.085938 62.695312 C 112.085938 62.089844 111.792969 61.515625 111.304688 61.160156 C 110.816406 60.800781 110.179688 60.699219 109.601562 60.886719 C 103.320312 62.90625 96.386719 61.195312 91.722656 56.570312 C 92.613281 52.972656 93.089844 49.289062 93.089844 45.597656 C 93.089844 44.316406 93.023438 43.050781 92.917969 41.796875 L 95.519531 41.796875 L 96.984375 46.199219 C 97.246094 46.976562 97.96875 47.496094 98.785156 47.496094 L 102.9375 47.496094 C 103.722656 49.703125 105.8125 51.296875 108.285156 51.296875 C 111.425781 51.296875 113.984375 48.738281 113.984375 45.597656 C 113.984375 42.457031 111.425781 39.898438 108.285156 39.898438 C 105.8125 39.898438 103.722656 41.492188 102.9375 43.699219 L 100.15625 43.699219 L 98.6875 39.300781 C 98.433594 38.523438 97.707031 38 96.886719 38 L 92.441406 38 C 91.894531 34.742188 90.996094 31.601562 89.792969 28.617188 Z M 108.285156 19.003906 C 109.332031 19.003906 110.183594 19.855469 110.183594 20.902344 C 110.183594 21.949219 109.332031 22.800781 108.285156 22.800781 C 107.238281 22.800781 106.386719 21.949219 106.386719 20.902344 C 106.386719 19.855469 107.238281 19.003906 108.285156 19.003906 Z M 108.285156 3.804688 C 109.332031 3.804688 110.183594 4.660156 110.183594 5.707031 C 110.183594 6.753906 109.332031 7.605469 108.285156 7.605469 C 107.238281 7.605469 106.386719 6.753906 106.386719 5.707031 C 106.386719 4.660156 107.238281 3.804688 108.285156 3.804688 Z M 5.707031 106.386719 C 4.660156 106.386719 3.804688 105.53125 3.804688 104.484375 C 3.804688 103.4375 4.660156 102.585938 5.707031 102.585938 C 6.753906 102.585938 7.605469 103.4375 7.605469 104.484375 C 7.605469 105.53125 6.753906 106.386719 5.707031 106.386719 Z M 20.902344 110.183594 C 19.855469 110.183594 19.003906 109.332031 19.003906 108.285156 C 19.003906 107.238281 19.855469 106.386719 20.902344 106.386719 C 21.949219 106.386719 22.800781 107.238281 22.800781 108.285156 C 22.800781 109.332031 21.949219 110.183594 20.902344 110.183594 Z M 39.898438 110.183594 C 38.851562 110.183594 38 109.332031 38 108.285156 C 38 107.238281 38.851562 106.386719 39.898438 106.386719 C 40.945312 106.386719 41.796875 107.238281 41.796875 108.285156 C 41.796875 109.332031 40.945312 110.183594 39.898438 110.183594 Z M 108.285156 43.699219 C 109.332031 43.699219 110.183594 44.550781 110.183594 45.597656 C 110.183594 46.644531 109.332031 47.496094 108.285156 47.496094 C 107.238281 47.496094 106.386719 46.644531 106.386719 45.597656 C 106.386719 44.550781 107.238281 43.699219 108.285156 43.699219 Z M 5.707031 45.597656 C 5.707031 22.554688 24.453125 3.804688 47.496094 3.804688 C 70.542969 3.804688 89.289062 22.554688 89.289062 45.597656 C 89.289062 48.222656 89.023438 50.84375 88.53125 53.429688 C 88.265625 53.292969 87.976562 53.195312 87.667969 53.195312 C 87.667969 53.195312 87.667969 53.195312 87.664062 53.195312 C 87.140625 53.195312 86.636719 53.414062 86.28125 53.796875 L 83.988281 56.25 C 83.113281 57.1875 82.128906 57.972656 81.09375 58.683594 C 82.722656 54.515625 83.589844 50.078125 83.589844 45.597656 C 83.589844 25.695312 67.398438 9.503906 47.496094 9.503906 C 27.59375 9.503906 11.40625 25.695312 11.40625 45.597656 C 11.40625 65.5 27.59375 81.691406 47.496094 81.691406 C 52.742188 81.691406 57.933594 80.511719 62.695312 78.289062 L 62.695312 84.488281 C 57.851562 86.386719 52.753906 87.390625 47.496094 87.390625 C 24.453125 87.390625 5.707031 68.640625 5.707031 45.597656 Z M 65.148438 60.878906 C 64.574219 60.703125 63.949219 60.808594 63.464844 61.167969 C 62.980469 61.527344 62.695312 62.09375 62.695312 62.695312 L 62.695312 74.042969 C 58.011719 76.554688 52.785156 77.890625 47.496094 77.890625 C 29.691406 77.890625 15.203125 63.40625 15.203125 45.597656 C 15.203125 27.792969 29.691406 13.304688 47.496094 13.304688 C 65.304688 13.304688 79.789062 27.792969 79.789062 45.597656 C 79.789062 51.042969 78.375 56.421875 75.714844 61.210938 C 72.527344 62.085938 69.105469 62.085938 65.855469 61.09375 Z M 108.285156 65.140625 L 108.285156 85.082031 C 108.285156 89.605469 106.292969 93.859375 102.816406 96.757812 L 87.390625 109.609375 L 71.960938 96.753906 C 68.488281 93.859375 66.492188 89.605469 66.492188 85.082031 L 66.492188 65.179688 C 73.8125 66.75 81.601562 64.363281 86.761719 58.847656 L 87.671875 57.875 L 88.488281 58.746094 C 93.5625 64.148438 101.109375 66.523438 108.285156 65.140625 Z M 108.285156 65.140625 " clip-rule="nonzero"/></clipPath><linearGradient x1="2.499995" gradientTransform="matrix(1.899609, 0, 0, 1.899609, -3.791803, -3.791802)" y1="1.500013" x2="62.500016" gradientUnits="userSpaceOnUse" y2="61.500991" id="c55ae8e2e1"><stop stop-opacity="1" stop-color="rgb(45.098877%, 45.098877%, 45.098877%)" offset="0"/><stop stop-opacity="1" stop-color="rgb(45.098877%, 45.098877%, 45.098877%)" offset="0.125"/><stop stop-opacity="1" stop-color="rgb(45.181274%, 45.181274%, 45.181274%)" offset="0.15625"/><stop stop-opacity="1" stop-color="rgb(45.370483%, 45.370483%, 45.370483%)" offset="0.164063"/><stop stop-opacity="1" stop-color="rgb(45.585632%, 45.585632%, 45.585632%)" offset="0.171875"/><stop stop-opacity="1" stop-color="rgb(45.799255%, 45.799255%, 45.799255%)" offset="0.179688"/><stop stop-opacity="1" stop-color="rgb(46.014404%, 46.014404%, 46.014404%)" offset="0.1875"/><stop stop-opacity="1" stop-color="rgb(46.229553%, 46.229553%, 46.229553%)" offset="0.195312"/><stop stop-opacity="1" stop-color="rgb(46.443176%, 46.443176%, 46.443176%)" offset="0.203125"/><stop stop-opacity="1" stop-color="rgb(46.658325%, 46.658325%, 46.658325%)" offset="0.210938"/><stop stop-opacity="1" stop-color="rgb(46.871948%, 46.871948%, 46.871948%)" offset="0.21875"/><stop stop-opacity="1" stop-color="rgb(47.087097%, 47.087097%, 47.087097%)" offset="0.226563"/><stop stop-opacity="1" stop-color="rgb(47.302246%, 47.302246%, 47.302246%)" offset="0.234375"/><stop stop-opacity="1" stop-color="rgb(47.515869%, 47.515869%, 47.515869%)" offset="0.242188"/><stop stop-opacity="1" stop-color="rgb(47.731018%, 47.731018%, 47.731018%)" offset="0.25"/><stop stop-opacity="1" stop-color="rgb(47.944641%, 47.944641%, 47.944641%)" offset="0.257813"/><stop stop-opacity="1" stop-color="rgb(48.15979%, 48.15979%, 48.15979%)" offset="0.265625"/><stop stop-opacity="1" stop-color="rgb(48.374939%, 48.374939%, 48.374939%)" offset="0.273438"/><stop stop-opacity="1" stop-color="rgb(48.588562%, 48.588562%, 48.588562%)" offset="0.28125"/><stop stop-opacity="1" stop-color="rgb(48.803711%, 48.803711%, 48.803711%)" offset="0.289062"/><stop stop-opacity="1" stop-color="rgb(49.017334%, 49.017334%, 49.017334%)" offset="0.296875"/><stop stop-opacity="1" stop-color="rgb(49.232483%, 49.232483%, 49.232483%)" offset="0.304688"/><stop stop-opacity="1" stop-color="rgb(49.447632%, 49.447632%, 49.447632%)" offset="0.3125"/><stop stop-opacity="1" stop-color="rgb(49.661255%, 49.661255%, 49.661255%)" offset="0.320312"/><stop stop-opacity="1" stop-color="rgb(49.876404%, 49.876404%, 49.876404%)" offset="0.328125"/><stop stop-opacity="1" stop-color="rgb(50.090027%, 50.090027%, 50.090027%)" offset="0.335938"/><stop stop-opacity="1" stop-color="rgb(50.305176%, 50.305176%, 50.305176%)" offset="0.34375"/><stop stop-opacity="1" stop-color="rgb(50.518799%, 50.518799%, 50.518799%)" offset="0.351562"/><stop stop-opacity="1" stop-color="rgb(50.733948%, 50.733948%, 50.733948%)" offset="0.359375"/><stop stop-opacity="1" stop-color="rgb(50.949097%, 50.949097%, 50.949097%)" offset="0.367188"/><stop stop-opacity="1" stop-color="rgb(51.16272%, 51.16272%, 51.16272%)" offset="0.375"/><stop stop-opacity="1" stop-color="rgb(51.377869%, 51.377869%, 51.377869%)" offset="0.382812"/><stop stop-opacity="1" stop-color="rgb(51.591492%, 51.591492%, 51.591492%)" offset="0.390625"/><stop stop-opacity="1" stop-color="rgb(51.806641%, 51.806641%, 51.806641%)" offset="0.398438"/><stop stop-opacity="1" stop-color="rgb(52.02179%, 52.02179%, 52.02179%)" offset="0.40625"/><stop stop-opacity="1" stop-color="rgb(52.235413%, 52.235413%, 52.235413%)" offset="0.414062"/><stop stop-opacity="1" stop-color="rgb(52.450562%, 52.450562%, 52.450562%)" offset="0.421875"/><stop stop-opacity="1" stop-color="rgb(52.664185%, 52.664185%, 52.664185%)" offset="0.429687"/><stop stop-opacity="1" stop-color="rgb(52.879333%, 52.879333%, 52.879333%)" offset="0.4375"/><stop stop-opacity="1" stop-color="rgb(53.094482%, 53.094482%, 53.094482%)" offset="0.445312"/><stop stop-opacity="1" stop-color="rgb(53.308105%, 53.308105%, 53.308105%)" offset="0.453125"/><stop stop-opacity="1" stop-color="rgb(53.523254%, 53.523254%, 53.523254%)" offset="0.460938"/><stop stop-opacity="1" stop-color="rgb(53.736877%, 53.736877%, 53.736877%)" offset="0.46875"/><stop stop-opacity="1" stop-color="rgb(53.952026%, 53.952026%, 53.952026%)" offset="0.476562"/><stop stop-opacity="1" stop-color="rgb(54.167175%, 54.167175%, 54.167175%)" offset="0.484375"/><stop stop-opacity="1" stop-color="rgb(54.380798%, 54.380798%, 54.380798%)" offset="0.492188"/><stop stop-opacity="1" stop-color="rgb(54.595947%, 54.595947%, 54.595947%)" offset="0.5"/><stop stop-opacity="1" stop-color="rgb(54.702759%, 54.702759%, 54.702759%)" offset="0.5"/><stop stop-opacity="1" stop-color="rgb(54.80957%, 54.80957%, 54.80957%)" offset="0.5"/><stop stop-opacity="1" stop-color="rgb(54.917908%, 54.917908%, 54.917908%)" offset="0.507813"/><stop stop-opacity="1" stop-color="rgb(55.024719%, 55.024719%, 55.024719%)" offset="0.515625"/><stop stop-opacity="1" stop-color="rgb(55.239868%, 55.239868%, 55.239868%)" offset="0.523438"/><stop stop-opacity="1" stop-color="rgb(55.453491%, 55.453491%, 55.453491%)" offset="0.53125"/><stop stop-opacity="1" stop-color="rgb(55.66864%, 55.66864%, 55.66864%)" offset="0.539062"/><stop stop-opacity="1" stop-color="rgb(55.882263%, 55.882263%, 55.882263%)" offset="0.546875"/><stop stop-opacity="1" stop-color="rgb(56.097412%, 56.097412%, 56.097412%)" offset="0.554688"/><stop stop-opacity="1" stop-color="rgb(56.312561%, 56.312561%, 56.312561%)" offset="0.5625"/><stop stop-opacity="1" stop-color="rgb(56.526184%, 56.526184%, 56.526184%)" offset="0.570312"/><stop stop-opacity="1" stop-color="rgb(56.741333%, 56.741333%, 56.741333%)" offset="0.578125"/><stop stop-opacity="1" stop-color="rgb(56.954956%, 56.954956%, 56.954956%)" offset="0.585938"/><stop stop-opacity="1" stop-color="rgb(57.170105%, 57.170105%, 57.170105%)" offset="0.59375"/><stop stop-opacity="1" stop-color="rgb(57.383728%, 57.383728%, 57.383728%)" offset="0.601563"/><stop stop-opacity="1" stop-color="rgb(57.598877%, 57.598877%, 57.598877%)" offset="0.609375"/><stop stop-opacity="1" stop-color="rgb(57.814026%, 57.814026%, 57.814026%)" offset="0.617188"/><stop stop-opacity="1" stop-color="rgb(58.027649%, 58.027649%, 58.027649%)" offset="0.625"/><stop stop-opacity="1" stop-color="rgb(58.242798%, 58.242798%, 58.242798%)" offset="0.632812"/><stop stop-opacity="1" stop-color="rgb(58.456421%, 58.456421%, 58.456421%)" offset="0.640625"/><stop stop-opacity="1" stop-color="rgb(58.67157%, 58.67157%, 58.67157%)" offset="0.648437"/><stop stop-opacity="1" stop-color="rgb(58.886719%, 58.886719%, 58.886719%)" offset="0.65625"/><stop stop-opacity="1" stop-color="rgb(59.100342%, 59.100342%, 59.100342%)" offset="0.664063"/><stop stop-opacity="1" stop-color="rgb(59.315491%, 59.315491%, 59.315491%)" offset="0.671875"/><stop stop-opacity="1" stop-color="rgb(59.529114%, 59.529114%, 59.529114%)" offset="0.679688"/><stop stop-opacity="1" stop-color="rgb(59.744263%, 59.744263%, 59.744263%)" offset="0.6875"/><stop stop-opacity="1" stop-color="rgb(59.959412%, 59.959412%, 59.959412%)" offset="0.695312"/><stop stop-opacity="1" stop-color="rgb(60.173035%, 60.173035%, 60.173035%)" offset="0.703125"/><stop stop-opacity="1" stop-color="rgb(60.388184%, 60.388184%, 60.388184%)" offset="0.710937"/><stop stop-opacity="1" stop-color="rgb(60.601807%, 60.601807%, 60.601807%)" offset="0.71875"/><stop stop-opacity="1" stop-color="rgb(60.816956%, 60.816956%, 60.816956%)" offset="0.726562"/><stop stop-opacity="1" stop-color="rgb(61.032104%, 61.032104%, 61.032104%)" offset="0.734375"/><stop stop-opacity="1" stop-color="rgb(61.245728%, 61.245728%, 61.245728%)" offset="0.742188"/><stop stop-opacity="1" stop-color="rgb(61.460876%, 61.460876%, 61.460876%)" offset="0.75"/><stop stop-opacity="1" stop-color="rgb(61.6745%, 61.6745%, 61.6745%)" offset="0.757812"/><stop stop-opacity="1" stop-color="rgb(61.889648%, 61.889648%, 61.889648%)" offset="0.765625"/><stop stop-opacity="1" stop-color="rgb(62.104797%, 62.104797%, 62.104797%)" offset="0.773437"/><stop stop-opacity="1" stop-color="rgb(62.31842%, 62.31842%, 62.31842%)" offset="0.78125"/><stop stop-opacity="1" stop-color="rgb(62.533569%, 62.533569%, 62.533569%)" offset="0.789062"/><stop stop-opacity="1" stop-color="rgb(62.747192%, 62.747192%, 62.747192%)" offset="0.796875"/><stop stop-opacity="1" stop-color="rgb(62.962341%, 62.962341%, 62.962341%)" offset="0.804687"/><stop stop-opacity="1" stop-color="rgb(63.17749%, 63.17749%, 63.17749%)" offset="0.8125"/><stop stop-opacity="1" stop-color="rgb(63.391113%, 63.391113%, 63.391113%)" offset="0.820312"/><stop stop-opacity="1" stop-color="rgb(63.606262%, 63.606262%, 63.606262%)" offset="0.828125"/><stop stop-opacity="1" stop-color="rgb(63.819885%, 63.819885%, 63.819885%)" offset="0.835938"/><stop stop-opacity="1" stop-color="rgb(64.035034%, 64.035034%, 64.035034%)" offset="0.84375"/><stop stop-opacity="1" stop-color="rgb(64.248657%, 64.248657%, 64.248657%)" offset="0.851562"/><stop stop-opacity="1" stop-color="rgb(64.463806%, 64.463806%, 64.463806%)" offset="0.859375"/><stop stop-opacity="1" stop-color="rgb(64.678955%, 64.678955%, 64.678955%)" offset="0.867187"/><stop stop-opacity="1" stop-color="rgb(64.892578%, 64.892578%, 64.892578%)" offset="0.875"/><stop stop-opacity="1" stop-color="rgb(65.049744%, 65.049744%, 65.049744%)" offset="1"/></linearGradient><clipPath id="cf75f33e9f"><path d="M 20 43 L 25 43 L 25 48 L 20 48 Z M 20 43 " clip-rule="nonzero"/></clipPath><clipPath id="7fd4288daf"><path d="M 24.703125 45.597656 C 24.703125 45.851562 24.652344 46.09375 24.558594 46.324219 C 24.460938 46.558594 24.324219 46.761719 24.144531 46.941406 C 23.96875 47.121094 23.761719 47.257812 23.53125 47.351562 C 23.296875 47.449219 23.054688 47.496094 22.800781 47.496094 C 22.550781 47.496094 22.308594 47.449219 22.074219 47.351562 C 21.84375 47.257812 21.636719 47.121094 21.460938 46.941406 C 21.28125 46.761719 21.144531 46.558594 21.046875 46.324219 C 20.953125 46.09375 20.902344 45.851562 20.902344 45.597656 C 20.902344 45.347656 20.953125 45.105469 21.046875 44.871094 C 21.144531 44.636719 21.28125 44.433594 21.460938 44.253906 C 21.636719 44.078125 21.84375 43.9375 22.074219 43.84375 C 22.308594 43.746094 22.550781 43.699219 22.800781 43.699219 C 23.054688 43.699219 23.296875 43.746094 23.53125 43.84375 C 23.761719 43.9375 23.96875 44.078125 24.144531 44.253906 C 24.324219 44.433594 24.460938 44.636719 24.558594 44.871094 C 24.652344 45.105469 24.703125 45.347656 24.703125 45.597656 Z M 24.703125 45.597656 " clip-rule="nonzero"/></clipPath><linearGradient x1="13.000144" gradientTransform="matrix(1.899609, 0, 0, 1.899609, -3.791803, -3.791802)" y1="24.999855" x2="15.00016" gradientUnits="userSpaceOnUse" y2="26.99984" id="342f548518"><stop stop-opacity="1" stop-color="rgb(48.753357%, 48.753357%, 48.753357%)" offset="0"/><stop stop-opacity="1" stop-color="rgb(48.867798%, 48.867798%, 48.867798%)" offset="0.25"/><stop stop-opacity="1" stop-color="rgb(49.09668%, 49.09668%, 49.09668%)" offset="0.499996"/><stop stop-opacity="1" stop-color="rgb(49.211121%, 49.211121%, 49.211121%)" offset="0.5"/><stop stop-opacity="1" stop-color="rgb(49.325562%, 49.325562%, 49.325562%)" offset="0.500004"/><stop stop-opacity="1" stop-color="rgb(49.440002%, 49.440002%, 49.440002%)" offset="0.75"/><stop stop-opacity="1" stop-color="rgb(49.554443%, 49.554443%, 49.554443%)" offset="1"/></linearGradient><clipPath id="f1fbf7261d"><path d="M 70 43 L 75 43 L 75 48 L 70 48 Z M 70 43 " clip-rule="nonzero"/></clipPath><clipPath id="d6258ae353"><path d="M 74.09375 45.597656 C 74.09375 45.851562 74.042969 46.09375 73.949219 46.324219 C 73.851562 46.558594 73.714844 46.761719 73.535156 46.941406 C 73.359375 47.121094 73.152344 47.257812 72.917969 47.351562 C 72.6875 47.449219 72.445312 47.496094 72.191406 47.496094 C 71.941406 47.496094 71.699219 47.449219 71.464844 47.351562 C 71.234375 47.257812 71.027344 47.121094 70.847656 46.941406 C 70.671875 46.761719 70.535156 46.558594 70.4375 46.324219 C 70.339844 46.09375 70.292969 45.851562 70.292969 45.597656 C 70.292969 45.347656 70.339844 45.105469 70.4375 44.871094 C 70.535156 44.636719 70.671875 44.433594 70.847656 44.253906 C 71.027344 44.078125 71.234375 43.9375 71.464844 43.84375 C 71.699219 43.746094 71.941406 43.699219 72.191406 43.699219 C 72.445312 43.699219 72.6875 43.746094 72.917969 43.84375 C 73.152344 43.9375 73.359375 44.078125 73.535156 44.253906 C 73.714844 44.433594 73.851562 44.636719 73.949219 44.871094 C 74.042969 45.105469 74.09375 45.347656 74.09375 45.597656 Z M 74.09375 45.597656 " clip-rule="nonzero"/></clipPath><linearGradient x1="38.99975" gradientTransform="matrix(1.899609, 0, 0, 1.899609, -3.791803, -3.791802)" y1="25.000246" x2="40.999736" gradientUnits="userSpaceOnUse" y2="27.000264" id="adbc066cf7"><stop stop-opacity="1" stop-color="rgb(54.702759%, 54.702759%, 54.702759%)" offset="0"/><stop stop-opacity="1" stop-color="rgb(54.8172%, 54.8172%, 54.8172%)" offset="0.25"/><stop stop-opacity="1" stop-color="rgb(55.046082%, 55.046082%, 55.046082%)" offset="0.499997"/><stop stop-opacity="1" stop-color="rgb(55.160522%, 55.160522%, 55.160522%)" offset="0.5"/><stop stop-opacity="1" stop-color="rgb(55.274963%, 55.274963%, 55.274963%)" offset="0.500003"/><stop stop-opacity="1" stop-color="rgb(55.389404%, 55.389404%, 55.389404%)" offset="0.75"/><stop stop-opacity="1" stop-color="rgb(55.503845%, 55.503845%, 55.503845%)" offset="1"/></linearGradient><clipPath id="1c300ddfba"><path d="M 28 36 L 40 36 L 40 56 L 28 56 Z M 28 36 " clip-rule="nonzero"/></clipPath><clipPath id="e9037820b8"><path d="M 38 55.097656 C 38.144531 55.097656 38.289062 55.078125 38.4375 55.042969 C 39.292969 54.84375 39.898438 54.078125 39.898438 53.195312 L 39.898438 38 C 39.898438 36.949219 39.046875 36.101562 38 36.101562 C 36.949219 36.101562 36.101562 36.949219 36.101562 38 L 36.101562 45.148438 L 32.101562 37.152344 C 31.707031 36.363281 30.832031 35.949219 29.964844 36.152344 C 29.109375 36.351562 28.5 37.117188 28.5 38 L 28.5 53.195312 C 28.5 54.246094 29.351562 55.097656 30.402344 55.097656 C 31.449219 55.097656 32.300781 54.246094 32.300781 53.195312 L 32.300781 46.046875 L 36.300781 54.046875 C 36.628906 54.699219 37.292969 55.097656 38 55.097656 Z M 38 55.097656 " clip-rule="nonzero"/></clipPath><linearGradient x1="15.960152" gradientTransform="matrix(1.899609, 0, 0, 1.899609, -3.791803, -3.791802)" y1="21.959864" x2="24.0002" gradientUnits="userSpaceOnUse" y2="29.999784" id="60b29e3781"><stop stop-opacity="1" stop-color="rgb(48.735046%, 48.735046%, 48.735046%)" offset="0"/><stop stop-opacity="1" stop-color="rgb(48.849487%, 48.849487%, 48.849487%)" offset="0.0625"/><stop stop-opacity="1" stop-color="rgb(49.079895%, 49.079895%, 49.079895%)" offset="0.125"/><stop stop-opacity="1" stop-color="rgb(49.310303%, 49.310303%, 49.310303%)" offset="0.1875"/><stop stop-opacity="1" stop-color="rgb(49.539185%, 49.539185%, 49.539185%)" offset="0.25"/><stop stop-opacity="1" stop-color="rgb(49.769592%, 49.769592%, 49.769592%)" offset="0.3125"/><stop stop-opacity="1" stop-color="rgb(50%, 50%, 50%)" offset="0.373138"/><stop stop-opacity="1" stop-color="rgb(50.114441%, 50.114441%, 50.114441%)" offset="0.375"/><stop stop-opacity="1" stop-color="rgb(50.228882%, 50.228882%, 50.228882%)" offset="0.4375"/><stop stop-opacity="1" stop-color="rgb(50.45929%, 50.45929%, 50.45929%)" offset="0.5"/><stop stop-opacity="1" stop-color="rgb(50.689697%, 50.689697%, 50.689697%)" offset="0.5625"/><stop stop-opacity="1" stop-color="rgb(50.920105%, 50.920105%, 50.920105%)" offset="0.625"/><stop stop-opacity="1" stop-color="rgb(51.148987%, 51.148987%, 51.148987%)" offset="0.626862"/><stop stop-opacity="1" stop-color="rgb(51.264954%, 51.264954%, 51.264954%)" offset="0.6875"/><stop stop-opacity="1" stop-color="rgb(51.379395%, 51.379395%, 51.379395%)" offset="0.75"/><stop stop-opacity="1" stop-color="rgb(51.609802%, 51.609802%, 51.609802%)" offset="0.8125"/><stop stop-opacity="1" stop-color="rgb(51.838684%, 51.838684%, 51.838684%)" offset="0.875"/><stop stop-opacity="1" stop-color="rgb(52.069092%, 52.069092%, 52.069092%)" offset="0.9375"/><stop stop-opacity="1" stop-color="rgb(52.2995%, 52.2995%, 52.2995%)" offset="1"/></linearGradient><clipPath id="4ecd7dc243"><path d="M 43 36 L 56 36 L 56 56 L 43 56 Z M 43 36 " clip-rule="nonzero"/></clipPath><clipPath id="dfb639078a"><path d="M 53.195312 39.898438 C 54.246094 39.898438 55.097656 39.046875 55.097656 38 C 55.097656 36.949219 54.246094 36.101562 53.195312 36.101562 L 45.597656 36.101562 C 44.550781 36.101562 43.699219 36.949219 43.699219 38 L 43.699219 53.195312 C 43.699219 54.246094 44.550781 55.097656 45.597656 55.097656 C 46.648438 55.097656 47.496094 54.246094 47.496094 53.195312 L 47.496094 47.496094 L 51.296875 47.496094 C 52.34375 47.496094 53.195312 46.648438 53.195312 45.597656 C 53.195312 44.550781 52.34375 43.699219 51.296875 43.699219 L 47.496094 43.699219 L 47.496094 39.898438 Z M 53.195312 39.898438 " clip-rule="nonzero"/></clipPath><linearGradient x1="23.999816" gradientTransform="matrix(1.899609, 0, 0, 1.899609, -3.791803, -3.791802)" y1="22.000168" x2="31.999768" gradientUnits="userSpaceOnUse" y2="30.000248" id="13a94b40f9"><stop stop-opacity="1" stop-color="rgb(50.584412%, 50.584412%, 50.584412%)" offset="0"/><stop stop-opacity="1" stop-color="rgb(50.698853%, 50.698853%, 50.698853%)" offset="0.0625"/><stop stop-opacity="1" stop-color="rgb(50.927734%, 50.927734%, 50.927734%)" offset="0.125"/><stop stop-opacity="1" stop-color="rgb(51.156616%, 51.156616%, 51.156616%)" offset="0.1875"/><stop stop-opacity="1" stop-color="rgb(51.385498%, 51.385498%, 51.385498%)" offset="0.25"/><stop stop-opacity="1" stop-color="rgb(51.61438%, 51.61438%, 51.61438%)" offset="0.3125"/><stop stop-opacity="1" stop-color="rgb(51.843262%, 51.843262%, 51.843262%)" offset="0.374996"/><stop stop-opacity="1" stop-color="rgb(51.957703%, 51.957703%, 51.957703%)" offset="0.375"/><stop stop-opacity="1" stop-color="rgb(52.072144%, 52.072144%, 52.072144%)" offset="0.4375"/><stop stop-opacity="1" stop-color="rgb(52.301025%, 52.301025%, 52.301025%)" offset="0.5"/><stop stop-opacity="1" stop-color="rgb(52.529907%, 52.529907%, 52.529907%)" offset="0.5625"/><stop stop-opacity="1" stop-color="rgb(52.758789%, 52.758789%, 52.758789%)" offset="0.625"/><stop stop-opacity="1" stop-color="rgb(52.987671%, 52.987671%, 52.987671%)" offset="0.625004"/><stop stop-opacity="1" stop-color="rgb(53.102112%, 53.102112%, 53.102112%)" offset="0.6875"/><stop stop-opacity="1" stop-color="rgb(53.216553%, 53.216553%, 53.216553%)" offset="0.75"/><stop stop-opacity="1" stop-color="rgb(53.443909%, 53.443909%, 53.443909%)" offset="0.8125"/><stop stop-opacity="1" stop-color="rgb(53.672791%, 53.672791%, 53.672791%)" offset="0.875"/><stop stop-opacity="1" stop-color="rgb(53.901672%, 53.901672%, 53.901672%)" offset="0.9375"/><stop stop-opacity="1" stop-color="rgb(54.130554%, 54.130554%, 54.130554%)" offset="1"/></linearGradient><clipPath id="f2bf81eb85"><path d="M 58 36 L 71 36 L 71 56 L 58 56 Z M 58 36 " clip-rule="nonzero"/></clipPath><clipPath id="0a0bfd1cf8"><path d="M 68.394531 36.101562 L 60.792969 36.101562 C 59.746094 36.101562 58.894531 36.949219 58.894531 38 C 58.894531 39.046875 59.746094 39.898438 60.792969 39.898438 L 62.695312 39.898438 L 62.695312 53.195312 C 62.695312 54.246094 63.546875 55.097656 64.59375 55.097656 C 65.644531 55.097656 66.492188 54.246094 66.492188 53.195312 L 66.492188 39.898438 L 68.394531 39.898438 C 69.441406 39.898438 70.292969 39.046875 70.292969 38 C 70.292969 36.949219 69.441406 36.101562 68.394531 36.101562 Z M 68.394531 36.101562 " clip-rule="nonzero"/></clipPath><linearGradient x1="32.499788" gradientTransform="matrix(1.899609, 0, 0, 1.899609, -3.791803, -3.791802)" y1="21.500204" x2="40.49974" gradientUnits="userSpaceOnUse" y2="29.500284" id="6309b48dda"><stop stop-opacity="1" stop-color="rgb(52.415466%, 52.415466%, 52.415466%)" offset="0"/><stop stop-opacity="1" stop-color="rgb(52.529907%, 52.529907%, 52.529907%)" offset="0.0625"/><stop stop-opacity="1" stop-color="rgb(52.758789%, 52.758789%, 52.758789%)" offset="0.125"/><stop stop-opacity="1" stop-color="rgb(52.987671%, 52.987671%, 52.987671%)" offset="0.1875"/><stop stop-opacity="1" stop-color="rgb(53.216553%, 53.216553%, 53.216553%)" offset="0.25"/><stop stop-opacity="1" stop-color="rgb(53.443909%, 53.443909%, 53.443909%)" offset="0.3125"/><stop stop-opacity="1" stop-color="rgb(53.672791%, 53.672791%, 53.672791%)" offset="0.374996"/><stop stop-opacity="1" stop-color="rgb(53.787231%, 53.787231%, 53.787231%)" offset="0.375"/><stop stop-opacity="1" stop-color="rgb(53.901672%, 53.901672%, 53.901672%)" offset="0.4375"/><stop stop-opacity="1" stop-color="rgb(54.130554%, 54.130554%, 54.130554%)" offset="0.5"/><stop stop-opacity="1" stop-color="rgb(54.359436%, 54.359436%, 54.359436%)" offset="0.5625"/><stop stop-opacity="1" stop-color="rgb(54.588318%, 54.588318%, 54.588318%)" offset="0.625"/><stop stop-opacity="1" stop-color="rgb(54.8172%, 54.8172%, 54.8172%)" offset="0.625004"/><stop stop-opacity="1" stop-color="rgb(54.931641%, 54.931641%, 54.931641%)" offset="0.6875"/><stop stop-opacity="1" stop-color="rgb(55.046082%, 55.046082%, 55.046082%)" offset="0.75"/><stop stop-opacity="1" stop-color="rgb(55.274963%, 55.274963%, 55.274963%)" offset="0.8125"/><stop stop-opacity="1" stop-color="rgb(55.503845%, 55.503845%, 55.503845%)" offset="0.875"/><stop stop-opacity="1" stop-color="rgb(55.732727%, 55.732727%, 55.732727%)" offset="0.9375"/><stop stop-opacity="1" stop-color="rgb(55.961609%, 55.961609%, 55.961609%)" offset="1"/></linearGradient><clipPath id="a33ec72eb0"><path d="M 34 20 L 61 20 L 61 33 L 34 33 Z M 34 20 " clip-rule="nonzero"/></clipPath><clipPath id="b6906cc9f4"><path d="M 37.152344 31.980469 L 47.496094 25.085938 L 57.839844 31.980469 C 58.164062 32.199219 58.53125 32.300781 58.894531 32.300781 C 59.507812 32.300781 60.109375 32.003906 60.476562 31.457031 C 61.058594 30.582031 60.820312 29.402344 59.949219 28.820312 L 48.550781 21.222656 C 47.914062 20.796875 47.082031 20.796875 46.445312 21.222656 L 35.046875 28.820312 C 34.175781 29.402344 33.941406 30.582031 34.519531 31.457031 C 35.101562 32.324219 36.277344 32.566406 37.152344 31.980469 Z M 37.152344 31.980469 " clip-rule="nonzero"/></clipPath><linearGradient x1="20.9035" gradientTransform="matrix(1.899609, 0, 0, 1.899609, -3.791803, -3.791802)" y1="11.9035" x2="31.1385" gradientUnits="userSpaceOnUse" y2="22.1385" id="f00ea8f0bd"><stop stop-opacity="1" stop-color="rgb(47.564697%, 47.564697%, 47.564697%)" offset="0"/><stop stop-opacity="1" stop-color="rgb(47.711182%, 47.711182%, 47.711182%)" offset="0.0625"/><stop stop-opacity="1" stop-color="rgb(48.00415%, 48.00415%, 48.00415%)" offset="0.125"/><stop stop-opacity="1" stop-color="rgb(48.297119%, 48.297119%, 48.297119%)" offset="0.1875"/><stop stop-opacity="1" stop-color="rgb(48.590088%, 48.590088%, 48.590088%)" offset="0.25"/><stop stop-opacity="1" stop-color="rgb(48.883057%, 48.883057%, 48.883057%)" offset="0.302638"/><stop stop-opacity="1" stop-color="rgb(49.029541%, 49.029541%, 49.029541%)" offset="0.3125"/><stop stop-opacity="1" stop-color="rgb(49.176025%, 49.176025%, 49.176025%)" offset="0.375"/><stop stop-opacity="1" stop-color="rgb(49.468994%, 49.468994%, 49.468994%)" offset="0.4375"/><stop stop-opacity="1" stop-color="rgb(49.760437%, 49.760437%, 49.760437%)" offset="0.5"/><stop stop-opacity="1" stop-color="rgb(50.053406%, 50.053406%, 50.053406%)" offset="0.5625"/><stop stop-opacity="1" stop-color="rgb(50.346375%, 50.346375%, 50.346375%)" offset="0.625"/><stop stop-opacity="1" stop-color="rgb(50.639343%, 50.639343%, 50.639343%)" offset="0.6875"/><stop stop-opacity="1" stop-color="rgb(50.932312%, 50.932312%, 50.932312%)" offset="0.697362"/><stop stop-opacity="1" stop-color="rgb(51.078796%, 51.078796%, 51.078796%)" offset="0.75"/><stop stop-opacity="1" stop-color="rgb(51.225281%, 51.225281%, 51.225281%)" offset="0.8125"/><stop stop-opacity="1" stop-color="rgb(51.51825%, 51.51825%, 51.51825%)" offset="0.875"/><stop stop-opacity="1" stop-color="rgb(51.809692%, 51.809692%, 51.809692%)" offset="0.9375"/><stop stop-opacity="1" stop-color="rgb(52.102661%, 52.102661%, 52.102661%)" offset="1"/></linearGradient><clipPath id="560de54db6"><path d="M 34 58 L 61 58 L 61 71 L 34 71 Z M 34 58 " clip-rule="nonzero"/></clipPath><clipPath id="c3f93fc770"><path d="M 57.839844 59.214844 L 47.496094 66.109375 L 37.152344 59.214844 C 36.28125 58.628906 35.101562 58.867188 34.519531 59.742188 C 33.9375 60.613281 34.171875 61.792969 35.046875 62.375 L 46.445312 69.972656 C 46.761719 70.1875 47.132812 70.292969 47.496094 70.292969 C 47.863281 70.292969 48.234375 70.1875 48.550781 69.972656 L 59.949219 62.375 C 60.820312 61.792969 61.058594 60.613281 60.476562 59.742188 C 59.894531 58.867188 58.714844 58.628906 57.839844 59.214844 Z M 57.839844 59.214844 " clip-rule="nonzero"/></clipPath><linearGradient x1="22.861179" gradientTransform="matrix(1.899609, 0, 0, 1.899609, -3.791803, -3.791802)" y1="29.860772" x2="33.069293" gradientUnits="userSpaceOnUse" y2="40.068724" id="17de0d578c"><stop stop-opacity="1" stop-color="rgb(52.122498%, 52.122498%, 52.122498%)" offset="0"/><stop stop-opacity="1" stop-color="rgb(52.267456%, 52.267456%, 52.267456%)" offset="0.0625"/><stop stop-opacity="1" stop-color="rgb(52.560425%, 52.560425%, 52.560425%)" offset="0.125"/><stop stop-opacity="1" stop-color="rgb(52.851868%, 52.851868%, 52.851868%)" offset="0.1875"/><stop stop-opacity="1" stop-color="rgb(53.143311%, 53.143311%, 53.143311%)" offset="0.25"/><stop stop-opacity="1" stop-color="rgb(53.436279%, 53.436279%, 53.436279%)" offset="0.300741"/><stop stop-opacity="1" stop-color="rgb(53.582764%, 53.582764%, 53.582764%)" offset="0.3125"/><stop stop-opacity="1" stop-color="rgb(53.727722%, 53.727722%, 53.727722%)" offset="0.375"/><stop stop-opacity="1" stop-color="rgb(54.019165%, 54.019165%, 54.019165%)" offset="0.4375"/><stop stop-opacity="1" stop-color="rgb(54.312134%, 54.312134%, 54.312134%)" offset="0.5"/><stop stop-opacity="1" stop-color="rgb(54.603577%, 54.603577%, 54.603577%)" offset="0.5625"/><stop stop-opacity="1" stop-color="rgb(54.896545%, 54.896545%, 54.896545%)" offset="0.625"/><stop stop-opacity="1" stop-color="rgb(55.187988%, 55.187988%, 55.187988%)" offset="0.6875"/><stop stop-opacity="1" stop-color="rgb(55.479431%, 55.479431%, 55.479431%)" offset="0.699259"/><stop stop-opacity="1" stop-color="rgb(55.625916%, 55.625916%, 55.625916%)" offset="0.75"/><stop stop-opacity="1" stop-color="rgb(55.7724%, 55.7724%, 55.7724%)" offset="0.8125"/><stop stop-opacity="1" stop-color="rgb(56.063843%, 56.063843%, 56.063843%)" offset="0.875"/><stop stop-opacity="1" stop-color="rgb(56.355286%, 56.355286%, 56.355286%)" offset="0.9375"/><stop stop-opacity="1" stop-color="rgb(56.648254%, 56.648254%, 56.648254%)" offset="1"/></linearGradient><clipPath id="912d5d8cf7"><path d="M 70 63 L 105 63 L 105 105 L 70 105 Z M 70 63 " clip-rule="nonzero"/></clipPath><clipPath id="fa284156b2"><path d="M 86.535156 64.171875 C 82.417969 67.351562 77.292969 69.222656 72.109375 69.445312 C 71.09375 69.488281 70.292969 70.328125 70.292969 71.34375 L 70.292969 84.191406 C 70.292969 88.148438 72.035156 91.871094 75.078125 94.40625 L 86.171875 103.648438 C 86.527344 103.945312 86.957031 104.089844 87.390625 104.089844 C 87.820312 104.089844 88.253906 103.945312 88.605469 103.648438 L 99.699219 94.40625 C 102.742188 91.871094 104.484375 88.148438 104.484375 84.191406 L 104.484375 71.1875 C 104.484375 70.183594 103.703125 69.351562 102.699219 69.292969 C 97.664062 68.992188 92.875 67.21875 88.847656 64.160156 C 88.164062 63.640625 87.214844 63.644531 86.535156 64.171875 Z M 100.6875 72.925781 L 100.6875 84.191406 C 100.6875 87.019531 99.441406 89.679688 97.269531 91.488281 L 87.390625 99.71875 L 77.507812 91.488281 C 75.339844 89.679688 74.09375 87.019531 74.09375 84.191406 L 74.09375 73.105469 C 78.949219 72.582031 83.683594 70.8125 87.707031 68.019531 C 91.589844 70.6875 96.023438 72.359375 100.6875 72.925781 Z M 100.6875 72.925781 " clip-rule="nonzero"/></clipPath><linearGradient x1="39.181" gradientTransform="matrix(1.899609, 0, 0, 1.899609, -3.791803, -3.791802)" y1="35.318001" x2="58.827499" gradientUnits="userSpaceOnUse" y2="54.964501" id="9e1393b43d"><stop stop-opacity="1" stop-color="rgb(57.106018%, 57.106018%, 57.106018%)" offset="0"/><stop stop-opacity="1" stop-color="rgb(57.246399%, 57.246399%, 57.246399%)" offset="0.03125"/><stop stop-opacity="1" stop-color="rgb(57.527161%, 57.527161%, 57.527161%)" offset="0.0625"/><stop stop-opacity="1" stop-color="rgb(57.807922%, 57.807922%, 57.807922%)" offset="0.09375"/><stop stop-opacity="1" stop-color="rgb(58.088684%, 58.088684%, 58.088684%)" offset="0.125"/><stop stop-opacity="1" stop-color="rgb(58.369446%, 58.369446%, 58.369446%)" offset="0.15625"/><stop stop-opacity="1" stop-color="rgb(58.651733%, 58.651733%, 58.651733%)" offset="0.1875"/><stop stop-opacity="1" stop-color="rgb(58.932495%, 58.932495%, 58.932495%)" offset="0.21875"/><stop stop-opacity="1" stop-color="rgb(59.213257%, 59.213257%, 59.213257%)" offset="0.25"/><stop stop-opacity="1" stop-color="rgb(59.494019%, 59.494019%, 59.494019%)" offset="0.28125"/><stop stop-opacity="1" stop-color="rgb(59.77478%, 59.77478%, 59.77478%)" offset="0.3125"/><stop stop-opacity="1" stop-color="rgb(60.055542%, 60.055542%, 60.055542%)" offset="0.34375"/><stop stop-opacity="1" stop-color="rgb(60.336304%, 60.336304%, 60.336304%)" offset="0.375"/><stop stop-opacity="1" stop-color="rgb(60.618591%, 60.618591%, 60.618591%)" offset="0.40625"/><stop stop-opacity="1" stop-color="rgb(60.899353%, 60.899353%, 60.899353%)" offset="0.4375"/><stop stop-opacity="1" stop-color="rgb(61.180115%, 61.180115%, 61.180115%)" offset="0.458097"/><stop stop-opacity="1" stop-color="rgb(61.320496%, 61.320496%, 61.320496%)" offset="0.46875"/><stop stop-opacity="1" stop-color="rgb(61.460876%, 61.460876%, 61.460876%)" offset="0.5"/><stop stop-opacity="1" stop-color="rgb(61.741638%, 61.741638%, 61.741638%)" offset="0.53125"/><stop stop-opacity="1" stop-color="rgb(62.0224%, 62.0224%, 62.0224%)" offset="0.541903"/><stop stop-opacity="1" stop-color="rgb(62.162781%, 62.162781%, 62.162781%)" offset="0.5625"/><stop stop-opacity="1" stop-color="rgb(62.303162%, 62.303162%, 62.303162%)" offset="0.59375"/><stop stop-opacity="1" stop-color="rgb(62.585449%, 62.585449%, 62.585449%)" offset="0.625"/><stop stop-opacity="1" stop-color="rgb(62.866211%, 62.866211%, 62.866211%)" offset="0.65625"/><stop stop-opacity="1" stop-color="rgb(63.146973%, 63.146973%, 63.146973%)" offset="0.6875"/><stop stop-opacity="1" stop-color="rgb(63.427734%, 63.427734%, 63.427734%)" offset="0.71875"/><stop stop-opacity="1" stop-color="rgb(63.708496%, 63.708496%, 63.708496%)" offset="0.75"/><stop stop-opacity="1" stop-color="rgb(63.989258%, 63.989258%, 63.989258%)" offset="0.78125"/><stop stop-opacity="1" stop-color="rgb(64.27002%, 64.27002%, 64.27002%)" offset="0.8125"/><stop stop-opacity="1" stop-color="rgb(64.552307%, 64.552307%, 64.552307%)" offset="0.84375"/><stop stop-opacity="1" stop-color="rgb(64.833069%, 64.833069%, 64.833069%)" offset="0.875"/><stop stop-opacity="1" stop-color="rgb(65.036011%, 65.036011%, 65.036011%)" offset="1"/></linearGradient><clipPath id="7add0a28f1"><path d="M 79 75 L 95 75 L 95 90 L 79 90 Z M 79 75 " clip-rule="nonzero"/></clipPath><clipPath id="f10f3fd7d3"><path d="M 84.148438 88.734375 C 84.503906 89.089844 84.988281 89.289062 85.488281 89.289062 C 85.527344 89.289062 85.558594 89.289062 85.59375 89.289062 C 86.132812 89.257812 86.636719 89 86.972656 88.578125 L 94.570312 79.078125 C 95.226562 78.261719 95.09375 77.0625 94.277344 76.410156 C 93.457031 75.757812 92.261719 75.886719 91.605469 76.707031 L 85.335938 84.546875 L 83.035156 82.246094 C 82.292969 81.503906 81.09375 81.503906 80.347656 82.246094 C 79.605469 82.988281 79.605469 84.191406 80.347656 84.933594 Z M 84.148438 88.734375 " clip-rule="nonzero"/></clipPath><linearGradient x1="44.639501" gradientTransform="matrix(1.899609, 0, 0, 1.899609, -3.791803, -3.791802)" y1="41.139502" x2="52.313001" gradientUnits="userSpaceOnUse" y2="48.813002" id="db0680680c"><stop stop-opacity="1" stop-color="rgb(59.686279%, 59.686279%, 59.686279%)" offset="0"/><stop stop-opacity="1" stop-color="rgb(59.796143%, 59.796143%, 59.796143%)" offset="0.0625"/><stop stop-opacity="1" stop-color="rgb(60.015869%, 60.015869%, 60.015869%)" offset="0.125"/><stop stop-opacity="1" stop-color="rgb(60.235596%, 60.235596%, 60.235596%)" offset="0.1875"/><stop stop-opacity="1" stop-color="rgb(60.455322%, 60.455322%, 60.455322%)" offset="0.25"/><stop stop-opacity="1" stop-color="rgb(60.675049%, 60.675049%, 60.675049%)" offset="0.3125"/><stop stop-opacity="1" stop-color="rgb(60.894775%, 60.894775%, 60.894775%)" offset="0.375"/><stop stop-opacity="1" stop-color="rgb(61.112976%, 61.112976%, 61.112976%)" offset="0.4375"/><stop stop-opacity="1" stop-color="rgb(61.332703%, 61.332703%, 61.332703%)" offset="0.464195"/><stop stop-opacity="1" stop-color="rgb(61.442566%, 61.442566%, 61.442566%)" offset="0.5"/><stop stop-opacity="1" stop-color="rgb(61.552429%, 61.552429%, 61.552429%)" offset="0.535805"/><stop stop-opacity="1" stop-color="rgb(61.662292%, 61.662292%, 61.662292%)" offset="0.5625"/><stop stop-opacity="1" stop-color="rgb(61.772156%, 61.772156%, 61.772156%)" offset="0.625"/><stop stop-opacity="1" stop-color="rgb(61.991882%, 61.991882%, 61.991882%)" offset="0.6875"/><stop stop-opacity="1" stop-color="rgb(62.211609%, 62.211609%, 62.211609%)" offset="0.75"/><stop stop-opacity="1" stop-color="rgb(62.42981%, 62.42981%, 62.42981%)" offset="0.8125"/><stop stop-opacity="1" stop-color="rgb(62.649536%, 62.649536%, 62.649536%)" offset="0.875"/><stop stop-opacity="1" stop-color="rgb(62.869263%, 62.869263%, 62.869263%)" offset="0.9375"/><stop stop-opacity="1" stop-color="rgb(63.088989%, 63.088989%, 63.088989%)" offset="1"/></linearGradient><clipPath id="24a6e720e0"><rect x="0" width="116" y="0" height="114"/></clipPath></defs><g mask="url(#f502e455d2)"><g transform="matrix(1, 0, 0, 1, 18, 18)"><g clip-path="url(#24a6e720e0)"><g clip-path="url(#be392dd1d2)"><g clip-path="url(#6593778637)"><path fill="url(#c55ae8e2e1)" d="M 0.0078125 0.0078125 L 0.0078125 113.984375 L 113.984375 113.984375 L 113.984375 0.0078125 Z M 0.0078125 0.0078125 " fill-rule="nonzero"/></g></g><g clip-path="url(#cf75f33e9f)"><g clip-path="url(#7fd4288daf)"><path fill="url(#342f548518)" d="M 20.902344 43.699219 L 20.902344 47.496094 L 24.703125 47.496094 L 24.703125 43.699219 Z M 20.902344 43.699219 " fill-rule="nonzero"/></g></g><g clip-path="url(#f1fbf7261d)"><g clip-path="url(#d6258ae353)"><path fill="url(#adbc066cf7)" d="M 70.292969 43.699219 L 70.292969 47.496094 L 74.09375 47.496094 L 74.09375 43.699219 Z M 70.292969 43.699219 " fill-rule="nonzero"/></g></g><g clip-path="url(#1c300ddfba)"><g clip-path="url(#e9037820b8)"><path fill="url(#60b29e3781)" d="M 28.5 35.949219 L 28.5 55.097656 L 39.898438 55.097656 L 39.898438 35.949219 Z M 28.5 35.949219 " fill-rule="nonzero"/></g></g><g clip-path="url(#4ecd7dc243)"><g clip-path="url(#dfb639078a)"><path fill="url(#13a94b40f9)" d="M 43.699219 36.101562 L 43.699219 55.097656 L 55.097656 55.097656 L 55.097656 36.101562 Z M 43.699219 36.101562 " fill-rule="nonzero"/></g></g><g clip-path="url(#f2bf81eb85)"><g clip-path="url(#0a0bfd1cf8)"><path fill="url(#6309b48dda)" d="M 58.894531 36.101562 L 58.894531 55.097656 L 70.292969 55.097656 L 70.292969 36.101562 Z M 58.894531 36.101562 " fill-rule="nonzero"/></g></g><g clip-path="url(#a33ec72eb0)"><g clip-path="url(#b6906cc9f4)"><path fill="url(#f00ea8f0bd)" d="M 33.941406 20.796875 L 33.941406 32.566406 L 61.058594 32.566406 L 61.058594 20.796875 Z M 33.941406 20.796875 " fill-rule="nonzero"/></g></g><g clip-path="url(#560de54db6)"><g clip-path="url(#c3f93fc770)"><path fill="url(#17de0d578c)" d="M 33.9375 58.628906 L 33.9375 70.292969 L 61.058594 70.292969 L 61.058594 58.628906 Z M 33.9375 58.628906 " fill-rule="nonzero"/></g></g><g clip-path="url(#912d5d8cf7)"><g clip-path="url(#fa284156b2)"><path fill="url(#9e1393b43d)" d="M 70.292969 63.640625 L 70.292969 104.089844 L 104.484375 104.089844 L 104.484375 63.640625 Z M 70.292969 63.640625 " fill-rule="nonzero"/></g></g><g clip-path="url(#7add0a28f1)"><g clip-path="url(#f10f3fd7d3)"><path fill="url(#db0680680c)" d="M 79.605469 75.757812 L 79.605469 89.289062 L 95.226562 89.289062 L 95.226562 75.757812 Z M 79.605469 75.757812 " fill-rule="nonzero"/></g></g></g></g></g></svg>