<svg xmlns="http://www.w3.org/2000/svg" xmlns:xlink="http://www.w3.org/1999/xlink" width="200" zoomAndPan="magnify" viewBox="0 0 150 149.999998" height="200" preserveAspectRatio="xMidYMid meet" version="1.0"><defs><filter x="0%" y="0%" width="100%" height="100%" id="357234eaf0"><feColorMatrix values="0 0 0 0 1 0 0 0 0 1 0 0 0 0 1 0 0 0 1 0" color-interpolation-filters="sRGB"/></filter><mask id="b447819683"><g filter="url(#357234eaf0)"><rect x="-15" width="180" fill="#000000" y="-15" height="179.999997" fill-opacity="0.32"/></g></mask><clipPath id="c628c0c030"><path d="M 1.167969 0.167969 L 86.667969 0.167969 L 86.667969 85.667969 L 1.167969 85.667969 Z M 1.167969 0.167969 " clip-rule="nonzero"/></clipPath><clipPath id="780cddef49"><rect x="0" width="87" y="0" height="86"/></clipPath></defs><g mask="url(#b447819683)"><g transform="matrix(1, 0, 0, 1, 31, 32)"><g clip-path="url(#780cddef49)"><path fill="#737373" d="M 72.097656 42.996094 C 72.097656 43.914062 72.050781 44.832031 71.960938 45.75 C 71.871094 46.664062 71.738281 47.574219 71.558594 48.476562 C 71.378906 49.378906 71.15625 50.273438 70.886719 51.152344 C 70.621094 52.03125 70.3125 52.898438 69.957031 53.75 C 69.605469 54.597656 69.214844 55.429688 68.777344 56.242188 C 68.34375 57.054688 67.871094 57.84375 67.363281 58.609375 C 66.851562 59.371094 66.300781 60.113281 65.71875 60.824219 C 65.132812 61.535156 64.515625 62.214844 63.867188 62.867188 C 63.214844 63.515625 62.535156 64.132812 61.824219 64.71875 C 61.113281 65.300781 60.371094 65.851562 59.609375 66.363281 C 58.84375 66.871094 58.054688 67.34375 57.242188 67.777344 C 56.429688 68.214844 55.597656 68.605469 54.75 68.957031 C 53.898438 69.3125 53.03125 69.621094 52.152344 69.886719 C 51.273438 70.15625 50.378906 70.378906 49.476562 70.558594 C 48.574219 70.738281 47.664062 70.871094 46.75 70.960938 C 45.832031 71.050781 44.914062 71.097656 43.996094 71.097656 C 43.074219 71.097656 42.15625 71.050781 41.238281 70.960938 C 40.324219 70.871094 39.414062 70.738281 38.511719 70.558594 C 37.609375 70.378906 36.71875 70.15625 35.835938 69.886719 C 34.957031 69.621094 34.089844 69.3125 33.238281 68.957031 C 32.390625 68.605469 31.558594 68.214844 30.746094 67.777344 C 29.933594 67.34375 29.144531 66.871094 28.382812 66.363281 C 27.617188 65.851562 26.878906 65.300781 26.164062 64.71875 C 25.453125 64.132812 24.773438 63.515625 24.121094 62.867188 C 23.472656 62.214844 22.855469 61.535156 22.269531 60.824219 C 21.6875 60.113281 21.140625 59.371094 20.628906 58.609375 C 20.117188 57.84375 19.644531 57.054688 19.210938 56.242188 C 18.777344 55.429688 18.382812 54.597656 18.03125 53.75 C 17.679688 52.898438 17.367188 52.03125 17.101562 51.152344 C 16.835938 50.273438 16.609375 49.378906 16.429688 48.476562 C 16.25 47.574219 16.117188 46.664062 16.027344 45.75 C 15.9375 44.832031 15.890625 43.914062 15.890625 42.996094 C 15.890625 42.074219 15.9375 41.15625 16.027344 40.238281 C 16.117188 39.324219 16.25 38.414062 16.429688 37.511719 C 16.609375 36.609375 16.835938 35.71875 17.101562 34.835938 C 17.367188 33.957031 17.679688 33.089844 18.03125 32.238281 C 18.382812 31.390625 18.777344 30.558594 19.210938 29.746094 C 19.644531 28.933594 20.117188 28.144531 20.628906 27.382812 C 21.140625 26.617188 21.6875 25.878906 22.269531 25.164062 C 22.855469 24.453125 23.472656 23.773438 24.121094 23.121094 C 24.773438 22.472656 25.453125 21.855469 26.164062 21.269531 C 26.878906 20.6875 27.617188 20.140625 28.382812 19.628906 C 29.144531 19.117188 29.933594 18.644531 30.746094 18.210938 C 31.558594 17.777344 32.390625 17.382812 33.238281 17.03125 C 34.089844 16.679688 34.957031 16.367188 35.835938 16.101562 C 36.71875 15.835938 37.609375 15.609375 38.511719 15.429688 C 39.414062 15.25 40.324219 15.117188 41.238281 15.027344 C 42.15625 14.9375 43.074219 14.890625 43.996094 14.890625 C 44.914062 14.890625 45.832031 14.9375 46.75 15.027344 C 47.664062 15.117188 48.574219 15.25 49.476562 15.429688 C 50.378906 15.609375 51.273438 15.835938 52.152344 16.101562 C 53.03125 16.367188 53.898438 16.679688 54.75 17.03125 C 55.597656 17.382812 56.429688 17.777344 57.242188 18.210938 C 58.054688 18.644531 58.84375 19.117188 59.609375 19.628906 C 60.371094 20.140625 61.113281 20.6875 61.824219 21.269531 C 62.535156 21.855469 63.214844 22.472656 63.867188 23.121094 C 64.515625 23.773438 65.132812 24.453125 65.71875 25.164062 C 66.300781 25.878906 66.851562 26.617188 67.363281 27.382812 C 67.871094 28.144531 68.34375 28.933594 68.777344 29.746094 C 69.214844 30.558594 69.605469 31.390625 69.957031 32.238281 C 70.3125 33.089844 70.621094 33.957031 70.886719 34.835938 C 71.15625 35.71875 71.378906 36.609375 71.558594 37.511719 C 71.738281 38.414062 71.871094 39.324219 71.960938 40.238281 C 72.050781 41.15625 72.097656 42.074219 72.097656 42.996094 Z M 72.097656 42.996094 " fill-opacity="1" fill-rule="nonzero"/><g clip-path="url(#c628c0c030)"><path fill="#a6a6a6" d="M 43.996094 0.167969 C 42.710938 0.167969 41.671875 1.207031 41.671875 2.492188 C 41.671875 3.773438 42.710938 4.8125 43.996094 4.8125 C 53.6875 4.8125 62.546875 8.445312 69.289062 14.417969 L 63.804688 19.902344 C 58.292969 15.15625 51.34375 12.570312 43.996094 12.570312 C 36.441406 12.570312 29.523438 15.339844 24.195312 19.914062 L 17.070312 12.785156 C 17.054688 12.773438 17.042969 12.761719 17.03125 12.75 C 17.019531 12.738281 17.007812 12.726562 16.996094 12.710938 C 16.089844 11.804688 14.621094 11.804688 13.710938 12.710938 C 5.625 20.800781 1.167969 31.554688 1.167969 42.996094 C 1.167969 66.609375 20.378906 85.820312 43.996094 85.820312 C 55.433594 85.820312 66.1875 81.367188 74.277344 73.277344 C 82.367188 65.1875 86.820312 54.433594 86.820312 42.996094 C 86.820312 19.378906 67.609375 0.167969 43.996094 0.167969 Z M 62.238281 24.777344 C 63.144531 25.683594 64.613281 25.683594 65.519531 24.777344 C 65.585938 24.710938 65.648438 24.640625 65.707031 24.566406 C 65.710938 24.5625 65.714844 24.558594 65.71875 24.550781 L 72.570312 17.699219 C 78.066406 23.898438 81.574219 31.890625 82.105469 40.671875 L 79.523438 40.671875 C 78.242188 40.671875 77.199219 41.710938 77.199219 42.996094 C 77.199219 44.277344 78.242188 45.316406 79.523438 45.316406 L 82.105469 45.316406 C 81.597656 53.871094 78.273438 61.890625 72.585938 68.300781 L 67.078125 62.792969 C 71.652344 57.46875 74.417969 50.550781 74.417969 42.996094 C 74.417969 41.710938 73.378906 40.671875 72.097656 40.671875 C 70.816406 40.671875 69.777344 41.710938 69.777344 42.996094 C 69.777344 57.210938 58.210938 68.777344 43.996094 68.777344 C 29.777344 68.777344 18.214844 57.210938 18.214844 42.996094 C 18.214844 28.777344 29.777344 17.214844 43.996094 17.214844 C 50.886719 17.214844 57.367188 19.898438 62.238281 24.777344 Z M 43.996094 75.976562 C 42.710938 75.976562 41.671875 77.015625 41.671875 78.296875 L 41.671875 81.105469 C 32.890625 80.574219 24.898438 77.066406 18.699219 71.570312 L 24.195312 66.078125 C 29.523438 70.652344 36.441406 73.417969 43.996094 73.417969 C 51.550781 73.417969 58.46875 70.652344 63.792969 66.078125 L 69.300781 71.585938 C 62.890625 77.273438 54.871094 80.597656 46.316406 81.105469 L 46.316406 78.300781 C 46.316406 77.015625 45.277344 75.976562 43.996094 75.976562 Z M 5.882812 45.316406 L 13.660156 45.316406 C 14.160156 51.960938 16.8125 58.019531 20.914062 62.792969 L 15.417969 68.289062 C 9.925781 62.089844 6.414062 54.101562 5.882812 45.316406 Z M 15.40625 17.6875 L 20.914062 23.195312 C 16.8125 27.972656 14.164062 34.027344 13.660156 40.671875 L 5.882812 40.671875 C 6.394531 32.117188 9.714844 24.097656 15.40625 17.6875 Z M 15.40625 17.6875 " fill-opacity="1" fill-rule="nonzero"/></g><path fill="#a6a6a6" d="M 54.957031 30.570312 L 54.957031 27.25 C 54.957031 26.84375 54.628906 26.511719 54.21875 26.511719 L 33.769531 26.511719 C 33.363281 26.511719 33.03125 26.84375 33.03125 27.25 L 33.03125 30.570312 C 33.03125 30.980469 33.363281 31.308594 33.769531 31.308594 L 41.660156 31.308594 L 41.660156 37.796875 L 34.953125 39.789062 C 34.640625 39.882812 34.425781 40.171875 34.425781 40.496094 L 34.425781 43.960938 C 34.425781 44.453125 34.902344 44.808594 35.375 44.667969 L 41.660156 42.800781 L 41.660156 44.289062 L 34.953125 46.320312 C 34.640625 46.414062 34.425781 46.699219 34.425781 47.023438 L 34.425781 50.496094 C 34.425781 50.988281 34.90625 51.34375 35.378906 51.203125 L 41.660156 49.300781 L 41.660156 58.738281 C 41.660156 59.144531 41.988281 59.476562 42.398438 59.476562 L 45.71875 59.476562 C 46.125 59.476562 46.457031 59.144531 46.457031 58.738281 L 46.457031 47.851562 L 53.164062 45.824219 C 53.476562 45.726562 53.6875 45.441406 53.6875 45.117188 L 53.6875 41.644531 C 53.6875 41.152344 53.210938 40.796875 52.738281 40.941406 L 46.457031 42.839844 L 46.457031 41.375 L 53.160156 39.382812 C 53.472656 39.289062 53.6875 39 53.6875 38.675781 L 53.6875 35.207031 C 53.6875 34.714844 53.214844 34.359375 52.742188 34.5 L 46.457031 36.371094 L 46.457031 31.308594 L 54.21875 31.308594 C 54.628906 31.308594 54.957031 30.980469 54.957031 30.570312 Z M 54.957031 30.570312 " fill-opacity="1" fill-rule="nonzero"/></g></g></g></svg>