<svg xmlns="http://www.w3.org/2000/svg" xmlns:xlink="http://www.w3.org/1999/xlink" width="200" zoomAndPan="magnify" viewBox="0 0 150 149.999998" height="200" preserveAspectRatio="xMidYMid meet" version="1.0"><defs><filter x="0%" y="0%" width="100%" height="100%" id="eba4a22255"><feColorMatrix values="0 0 0 0 1 0 0 0 0 1 0 0 0 0 1 0 0 0 1 0" color-interpolation-filters="sRGB"/></filter><mask id="ea0877a30c"><g filter="url(#eba4a22255)"><rect x="-15" width="180" fill="#000000" y="-15" height="179.999997" fill-opacity="0.42"/></g></mask><clipPath id="ef10fccf8b"><path d="M 39 0.945312 L 80.765625 0.945312 L 80.765625 91 L 39 91 Z M 39 0.945312 " clip-rule="nonzero"/></clipPath><clipPath id="522a564970"><path d="M 0.515625 0.945312 L 41 0.945312 L 41 91 L 0.515625 91 Z M 0.515625 0.945312 " clip-rule="nonzero"/></clipPath><clipPath id="9589ca3e7c"><path d="M 40 74 L 80.765625 74 L 80.765625 130.695312 L 40 130.695312 Z M 40 74 " clip-rule="nonzero"/></clipPath><clipPath id="833f462e01"><path d="M 0.515625 74 L 41 74 L 41 130.695312 L 0.515625 130.695312 Z M 0.515625 74 " clip-rule="nonzero"/></clipPath><clipPath id="c85ba6e0ec"><path d="M 40 48 L 80.765625 48 L 80.765625 91 L 40 91 Z M 40 48 " clip-rule="nonzero"/></clipPath><clipPath id="14111dbc87"><path d="M 0.515625 48 L 41 48 L 41 91 L 0.515625 91 Z M 0.515625 48 " clip-rule="nonzero"/></clipPath><clipPath id="2d9960f4f5"><rect x="0" width="81" y="0" height="132"/></clipPath></defs><g mask="url(#ea0877a30c)"><g transform="matrix(1, 0, 0, 1, 37, 9)"><g clip-path="url(#2d9960f4f5)"><g clip-path="url(#ef10fccf8b)"><path fill="#343434" d="M 40.628906 0.945312 L 39.753906 3.902344 L 39.753906 89.699219 L 40.628906 90.566406 L 80.707031 67.023438 Z M 40.628906 0.945312 " fill-opacity="1" fill-rule="nonzero"/></g><g clip-path="url(#522a564970)"><path fill="#8c8c8c" d="M 40.628906 0.945312 L 0.550781 67.023438 L 40.628906 90.566406 Z M 40.628906 0.945312 " fill-opacity="1" fill-rule="nonzero"/></g><g clip-path="url(#9589ca3e7c)"><path fill="#3c3c3b" d="M 40.628906 98.105469 L 40.136719 98.703125 L 40.136719 129.265625 L 40.628906 130.699219 L 80.730469 74.578125 Z M 40.628906 98.105469 " fill-opacity="1" fill-rule="nonzero"/></g><g clip-path="url(#833f462e01)"><path fill="#8c8c8c" d="M 40.628906 130.699219 L 40.628906 98.105469 L 0.550781 74.578125 Z M 40.628906 130.699219 " fill-opacity="1" fill-rule="nonzero"/></g><g clip-path="url(#c85ba6e0ec)"><path fill="#141414" d="M 40.628906 90.566406 L 80.707031 67.023438 L 40.628906 48.925781 Z M 40.628906 90.566406 " fill-opacity="1" fill-rule="nonzero"/></g><g clip-path="url(#14111dbc87)"><path fill="#393939" d="M 0.550781 67.023438 L 40.628906 90.566406 L 40.628906 48.925781 Z M 0.550781 67.023438 " fill-opacity="1" fill-rule="nonzero"/></g></g></g></g></svg>