<svg xmlns="http://www.w3.org/2000/svg" xmlns:xlink="http://www.w3.org/1999/xlink" width="200" zoomAndPan="magnify" viewBox="0 0 150 149.999998" height="200" preserveAspectRatio="xMidYMid meet" version="1.0"><defs><clipPath id="0620c73314"><path d="M 2.046875 40.621094 L 53 40.621094 L 53 102.121094 L 2.046875 102.121094 Z M 2.046875 40.621094 " clip-rule="nonzero"/></clipPath><clipPath id="6d66a63e84"><path d="M 86 40.621094 L 148 40.621094 L 148 102.121094 L 86 102.121094 Z M 86 40.621094 " clip-rule="nonzero"/></clipPath><clipPath id="4fb7e8daa8"><path d="M 44 40.621094 L 95 40.621094 L 95 102.121094 L 44 102.121094 Z M 44 40.621094 " clip-rule="nonzero"/></clipPath></defs><path fill="#737373" d="M 34.527344 86.832031 L 34.527344 83.015625 C 38.5 82.152344 40.28125 79.105469 40.28125 76.371094 C 40.28125 73.078125 38.492188 70.941406 34.308594 69.234375 C 31.109375 67.875 30.183594 67.066406 30.183594 65.621094 C 30.183594 64.457031 31.03125 63.105469 33.425781 63.105469 C 35.476562 63.105469 36.859375 63.777344 37.71875 64.285156 L 38.34375 64.65625 L 39.570312 61.140625 L 39.175781 60.886719 C 37.96875 60.109375 36.492188 59.652344 34.78125 59.523438 L 34.78125 56.027344 L 31.3125 56.027344 L 31.3125 59.707031 C 27.972656 60.476562 25.847656 62.925781 25.847656 66.058594 C 25.847656 69.84375 28.914062 71.570312 32.226562 72.867188 C 34.867188 73.9375 35.945312 75.039062 35.945312 76.660156 C 35.945312 78.375 34.402344 79.578125 32.195312 79.578125 C 30.507812 79.578125 28.699219 79.023438 27.359375 78.089844 L 26.71875 77.648438 L 25.441406 81.261719 L 25.808594 81.523438 C 27.078125 82.429688 29.101562 83.066406 31.09375 83.199219 L 31.09375 86.832031 L 34.527344 86.832031 " fill-opacity="1" fill-rule="nonzero"/><g clip-path="url(#0620c73314)"><path fill="#737373" d="M 47.996094 94.160156 L 47.1875 92.757812 C 46.226562 93.40625 45.214844 93.984375 44.167969 94.5 L 44.980469 95.90625 C 43.890625 96.445312 42.761719 96.914062 41.601562 97.308594 L 41.179688 95.734375 C 40.085938 96.109375 38.964844 96.414062 37.8125 96.640625 L 38.234375 98.214844 C 37.050781 98.453125 35.835938 98.609375 34.605469 98.6875 L 34.605469 97.054688 C 34.027344 97.09375 33.449219 97.121094 32.863281 97.121094 C 32.273438 97.121094 31.695312 97.09375 31.117188 97.054688 L 31.117188 98.6875 C 29.882812 98.609375 28.675781 98.453125 27.488281 98.214844 L 27.910156 96.640625 C 26.757812 96.414062 25.636719 96.109375 24.542969 95.734375 L 24.121094 97.308594 C 22.960938 96.914062 21.832031 96.445312 20.742188 95.90625 L 21.554688 94.5 C 20.507812 93.988281 19.496094 93.40625 18.535156 92.757812 L 17.726562 94.160156 C 16.710938 93.480469 15.746094 92.734375 14.832031 91.929688 L 15.976562 90.785156 C 15.097656 90.015625 14.273438 89.191406 13.507812 88.316406 L 12.363281 89.460938 C 11.558594 88.546875 10.8125 87.582031 10.132812 86.566406 L 11.535156 85.757812 C 10.886719 84.796875 10.304688 83.785156 9.792969 82.738281 L 8.386719 83.546875 C 7.84375 82.460938 7.378906 81.332031 6.984375 80.167969 L 8.558594 79.75 C 8.183594 78.65625 7.878906 77.535156 7.652344 76.382812 L 6.074219 76.804688 C 5.839844 75.621094 5.679688 74.40625 5.601562 73.175781 L 7.238281 73.175781 C 7.199219 72.597656 7.171875 72.015625 7.171875 71.429688 C 7.171875 70.84375 7.199219 70.261719 7.238281 69.6875 L 5.601562 69.6875 C 5.679688 68.457031 5.839844 67.242188 6.074219 66.058594 L 7.652344 66.480469 C 7.875 65.328125 8.179688 64.207031 8.554688 63.113281 L 6.984375 62.691406 C 7.378906 61.53125 7.84375 60.402344 8.386719 59.3125 L 9.789062 60.125 C 10.304688 59.074219 10.886719 58.066406 11.535156 57.105469 L 10.132812 56.296875 C 10.808594 55.28125 11.558594 54.3125 12.363281 53.398438 L 13.507812 54.546875 C 14.273438 53.667969 15.097656 52.84375 15.972656 52.078125 L 14.828125 50.933594 C 15.742188 50.128906 16.707031 49.378906 17.722656 48.699219 L 18.535156 50.101562 C 19.496094 49.457031 20.507812 48.875 21.554688 48.359375 L 20.742188 46.957031 C 21.828125 46.414062 22.957031 45.945312 24.121094 45.550781 L 24.542969 47.125 C 25.636719 46.75 26.757812 46.445312 27.910156 46.222656 L 27.488281 44.644531 C 28.671875 44.40625 29.882812 44.25 31.117188 44.171875 L 31.117188 45.804688 C 31.695312 45.765625 32.273438 45.738281 32.863281 45.738281 C 33.449219 45.738281 34.027344 45.765625 34.605469 45.804688 L 34.605469 44.171875 C 35.835938 44.25 37.050781 44.40625 38.234375 44.644531 L 37.808594 46.222656 C 38.964844 46.445312 40.085938 46.75 41.179688 47.125 L 41.601562 45.550781 C 42.761719 45.945312 43.890625 46.414062 44.980469 46.953125 L 44.167969 48.359375 C 45.214844 48.875 46.226562 49.457031 47.1875 50.101562 L 47.996094 48.699219 C 48.566406 49.082031 49.117188 49.488281 49.652344 49.910156 C 50.410156 49.019531 51.214844 48.171875 52.0625 47.363281 C 46.792969 43.152344 40.117188 40.621094 32.863281 40.621094 C 15.875 40.621094 2.054688 54.441406 2.054688 71.429688 C 2.054688 88.417969 15.875 102.238281 32.863281 102.238281 C 40.117188 102.238281 46.792969 99.710938 52.0625 95.496094 C 51.214844 94.691406 50.410156 93.839844 49.652344 92.949219 C 49.117188 93.371094 48.566406 93.777344 47.996094 94.160156 " fill-opacity="1" fill-rule="nonzero"/></g><path fill="#737373" d="M 47.699219 52.445312 C 43.601562 49.234375 38.457031 47.300781 32.863281 47.300781 C 19.558594 47.300781 8.734375 58.125 8.734375 71.429688 C 8.734375 84.734375 19.558594 95.558594 32.863281 95.558594 C 38.457031 95.558594 43.601562 93.625 47.699219 90.417969 C 47.476562 90.097656 47.261719 89.777344 47.050781 89.453125 C 43.140625 92.539062 38.21875 94.394531 32.863281 94.394531 C 20.199219 94.394531 9.894531 84.09375 9.894531 71.429688 C 9.894531 58.765625 20.199219 48.464844 32.863281 48.464844 C 38.21875 48.464844 43.140625 50.324219 47.050781 53.410156 C 47.261719 53.085938 47.476562 52.761719 47.699219 52.445312 " fill-opacity="1" fill-rule="nonzero"/><g clip-path="url(#6d66a63e84)"><path fill="#737373" d="M 143.917969 76.800781 L 142.34375 76.378906 C 142.117188 77.53125 141.8125 78.65625 141.4375 79.75 L 143.011719 80.167969 C 142.617188 81.332031 142.148438 82.460938 141.609375 83.546875 L 140.203125 82.738281 C 139.6875 83.785156 139.105469 84.792969 138.460938 85.757812 L 139.863281 86.566406 C 139.183594 87.582031 138.433594 88.546875 137.628906 89.460938 L 136.484375 88.316406 C 135.71875 89.191406 134.894531 90.015625 134.019531 90.78125 L 135.164062 91.925781 C 134.25 92.734375 133.285156 93.480469 132.269531 94.160156 L 131.460938 92.757812 C 130.496094 93.40625 129.488281 93.984375 128.441406 94.5 L 129.25 95.90625 C 128.164062 96.445312 127.035156 96.914062 125.871094 97.308594 L 125.453125 95.734375 C 124.359375 96.109375 123.234375 96.414062 122.082031 96.640625 L 122.503906 98.214844 C 121.320312 98.453125 120.109375 98.609375 118.875 98.6875 L 118.875 97.054688 C 118.300781 97.09375 117.722656 97.121094 117.132812 97.121094 C 116.546875 97.121094 115.964844 97.09375 115.390625 97.054688 L 115.390625 98.6875 C 114.15625 98.609375 112.945312 98.453125 111.761719 98.214844 L 112.1875 96.640625 C 111.03125 96.414062 109.910156 96.109375 108.816406 95.734375 L 108.394531 97.308594 C 107.230469 96.914062 106.101562 96.445312 105.015625 95.90625 L 105.828125 94.5 C 104.777344 93.988281 103.769531 93.40625 102.808594 92.757812 L 101.996094 94.160156 C 100.980469 93.480469 100.015625 92.734375 99.101562 91.929688 L 100.246094 90.785156 C 99.371094 90.019531 98.546875 89.195312 97.785156 88.316406 L 96.636719 89.460938 C 95.832031 88.550781 95.082031 87.582031 94.402344 86.566406 L 95.808594 85.757812 C 95.160156 84.796875 94.578125 83.785156 94.0625 82.738281 L 92.660156 83.546875 C 92.117188 82.460938 91.652344 81.332031 91.257812 80.167969 L 92.828125 79.75 C 92.453125 78.65625 92.148438 77.535156 91.925781 76.382812 L 90.347656 76.804688 C 90.109375 75.621094 89.953125 74.40625 89.875 73.175781 L 91.507812 73.175781 C 91.46875 72.597656 91.445312 72.015625 91.445312 71.429688 C 91.445312 70.84375 91.46875 70.261719 91.507812 69.6875 L 89.875 69.6875 C 89.953125 68.457031 90.109375 67.242188 90.347656 66.058594 L 91.925781 66.480469 C 92.148438 65.328125 92.453125 64.207031 92.828125 63.113281 L 91.257812 62.691406 C 91.648438 61.53125 92.117188 60.402344 92.65625 59.3125 L 94.0625 60.125 C 94.578125 59.078125 95.15625 58.066406 95.808594 57.105469 L 94.402344 56.296875 C 95.082031 55.28125 95.828125 54.3125 96.636719 53.398438 L 97.78125 54.546875 C 98.546875 53.667969 99.367188 52.84375 100.246094 52.082031 L 99.097656 50.933594 C 100.015625 50.128906 100.980469 49.378906 101.996094 48.699219 L 102.804688 50.105469 C 103.769531 49.457031 104.777344 48.875 105.828125 48.359375 L 105.015625 46.957031 C 106.101562 46.414062 107.230469 45.945312 108.394531 45.550781 L 108.816406 47.125 C 109.910156 46.75 111.03125 46.445312 112.183594 46.222656 L 111.761719 44.644531 C 112.945312 44.40625 114.15625 44.25 115.390625 44.171875 L 115.390625 45.804688 C 115.964844 45.765625 116.546875 45.742188 117.132812 45.742188 C 117.722656 45.742188 118.300781 45.765625 118.875 45.804688 L 118.875 44.171875 C 120.109375 44.25 121.320312 44.40625 122.503906 44.644531 L 122.082031 46.222656 C 123.234375 46.445312 124.359375 46.75 125.453125 47.125 L 125.871094 45.550781 C 127.035156 45.945312 128.164062 46.414062 129.25 46.953125 L 128.441406 48.359375 C 129.488281 48.875 130.5 49.457031 131.460938 50.105469 L 132.269531 48.699219 C 133.285156 49.378906 134.25 50.128906 135.164062 50.933594 L 134.019531 52.078125 C 134.894531 52.84375 135.722656 53.667969 136.484375 54.542969 L 137.632812 53.398438 C 138.433594 54.3125 139.183594 55.277344 139.863281 56.292969 L 138.460938 57.105469 C 139.105469 58.066406 139.6875 59.078125 140.203125 60.125 L 141.609375 59.3125 C 142.148438 60.402344 142.617188 61.53125 143.011719 62.691406 L 141.4375 63.113281 C 141.8125 64.207031 142.117188 65.328125 142.34375 66.480469 L 143.917969 66.058594 C 144.15625 67.242188 144.3125 68.453125 144.390625 69.6875 L 142.757812 69.6875 C 142.796875 70.261719 142.824219 70.84375 142.824219 71.429688 C 142.824219 72.015625 142.796875 72.597656 142.757812 73.175781 L 144.390625 73.175781 C 144.3125 74.40625 144.15625 75.617188 143.917969 76.800781 Z M 117.132812 40.625 C 100.144531 40.625 86.328125 54.445312 86.328125 71.429688 C 86.328125 88.417969 100.144531 102.238281 117.132812 102.238281 C 134.121094 102.238281 147.941406 88.417969 147.941406 71.429688 C 147.941406 54.445312 134.121094 40.625 117.132812 40.625 " fill-opacity="1" fill-rule="nonzero"/></g><path fill="#737373" d="M 117.132812 94.394531 C 104.46875 94.394531 94.167969 84.09375 94.167969 71.429688 C 94.167969 58.765625 104.46875 48.464844 117.132812 48.464844 C 129.796875 48.464844 140.097656 58.765625 140.097656 71.429688 C 140.097656 84.09375 129.796875 94.394531 117.132812 94.394531 Z M 117.132812 47.300781 C 103.828125 47.300781 93.007812 58.125 93.007812 71.429688 C 93.007812 84.734375 103.828125 95.558594 117.132812 95.558594 C 130.4375 95.558594 141.261719 84.734375 141.261719 71.429688 C 141.261719 58.125 130.4375 47.300781 117.132812 47.300781 " fill-opacity="1" fill-rule="nonzero"/><path fill="#737373" d="M 76.699219 59.664062 C 79.554688 59.664062 82.304688 61.058594 84.242188 63.484375 L 84.976562 62.898438 C 85.242188 61.890625 85.554688 60.898438 85.914062 59.929688 C 83.390625 57.433594 80.113281 56.027344 76.699219 56.027344 C 70.367188 56.027344 65.019531 60.761719 63.363281 67.210938 L 60.132812 67.210938 L 59.535156 69.871094 L 62.902344 69.871094 C 62.851562 70.382812 62.828125 70.902344 62.828125 71.429688 C 62.828125 71.957031 62.851562 72.476562 62.902344 72.992188 L 58.574219 72.992188 L 57.980469 75.648438 L 63.363281 75.648438 C 65.019531 82.097656 70.367188 86.832031 76.699219 86.832031 C 80.113281 86.832031 83.390625 85.425781 85.914062 82.929688 C 85.554688 81.960938 85.242188 80.96875 84.976562 79.960938 L 84.242188 79.375 C 82.308594 81.804688 79.554688 83.199219 76.699219 83.199219 C 72.347656 83.199219 68.636719 80.058594 67.15625 75.648438 L 81.914062 75.648438 L 82.507812 72.992188 L 66.566406 72.992188 C 66.507812 72.480469 66.464844 71.960938 66.464844 71.429688 C 66.464844 70.898438 66.507812 70.378906 66.566406 69.871094 L 83.472656 69.871094 L 84.066406 67.210938 L 67.15625 67.210938 C 68.636719 62.804688 72.347656 59.664062 76.699219 59.664062 " fill-opacity="1" fill-rule="nonzero"/><g clip-path="url(#4fb7e8daa8)"><path fill="#737373" d="M 90.132812 94.160156 L 89.320312 92.757812 C 88.359375 93.40625 87.351562 93.984375 86.300781 94.5 L 87.113281 95.90625 C 86.027344 96.445312 84.898438 96.914062 83.738281 97.308594 L 83.316406 95.734375 C 82.222656 96.109375 81.097656 96.414062 79.945312 96.640625 L 80.371094 98.214844 C 79.183594 98.453125 77.972656 98.609375 76.738281 98.6875 L 76.738281 97.054688 C 76.164062 97.09375 75.582031 97.121094 74.996094 97.121094 C 74.410156 97.121094 73.832031 97.09375 73.253906 97.054688 L 73.253906 98.6875 C 72.019531 98.609375 70.808594 98.453125 69.625 98.214844 L 70.046875 96.640625 C 68.894531 96.414062 67.773438 96.109375 66.679688 95.734375 L 66.257812 97.308594 C 65.097656 96.914062 63.96875 96.445312 62.878906 95.90625 L 63.691406 94.5 C 62.644531 93.988281 61.632812 93.40625 60.671875 92.757812 L 59.859375 94.160156 C 58.84375 93.480469 57.878906 92.734375 56.964844 91.929688 L 58.109375 90.785156 C 57.234375 90.015625 56.410156 89.191406 55.644531 88.316406 L 54.5 89.460938 C 53.695312 88.546875 52.945312 87.582031 52.269531 86.566406 L 53.671875 85.757812 C 53.023438 84.796875 52.441406 83.785156 51.925781 82.738281 L 50.523438 83.546875 C 49.980469 82.460938 49.515625 81.332031 49.121094 80.167969 L 50.691406 79.75 C 50.316406 78.65625 50.011719 77.535156 49.789062 76.382812 L 48.210938 76.804688 C 47.972656 75.621094 47.816406 74.40625 47.738281 73.175781 L 49.371094 73.175781 C 49.332031 72.597656 49.308594 72.015625 49.308594 71.429688 C 49.308594 70.84375 49.332031 70.261719 49.371094 69.6875 L 47.738281 69.6875 C 47.816406 68.457031 47.972656 67.242188 48.210938 66.058594 L 49.785156 66.480469 C 50.011719 65.328125 50.316406 64.207031 50.691406 63.113281 L 49.121094 62.691406 C 49.511719 61.53125 49.980469 60.402344 50.519531 59.3125 L 51.925781 60.125 C 52.441406 59.074219 53.019531 58.066406 53.667969 57.105469 L 52.269531 56.296875 C 52.945312 55.28125 53.691406 54.3125 54.5 53.398438 L 55.644531 54.546875 C 56.410156 53.667969 57.234375 52.84375 58.109375 52.078125 L 56.964844 50.933594 C 57.878906 50.128906 58.84375 49.378906 59.859375 48.699219 L 60.671875 50.101562 C 61.632812 49.457031 62.640625 48.875 63.691406 48.359375 L 62.878906 46.957031 C 63.964844 46.414062 65.09375 45.945312 66.253906 45.550781 L 66.675781 47.125 C 67.769531 46.75 68.894531 46.445312 70.046875 46.222656 L 69.625 44.644531 C 70.808594 44.40625 72.019531 44.25 73.253906 44.171875 L 73.253906 45.804688 C 73.832031 45.765625 74.410156 45.738281 74.996094 45.738281 C 75.582031 45.738281 76.164062 45.765625 76.738281 45.804688 L 76.738281 44.171875 C 77.972656 44.25 79.183594 44.40625 80.371094 44.644531 L 79.945312 46.222656 C 81.097656 46.445312 82.222656 46.75 83.316406 47.125 L 83.738281 45.550781 C 84.898438 45.945312 86.027344 46.414062 87.113281 46.953125 L 86.300781 48.359375 C 87.351562 48.875 88.359375 49.457031 89.320312 50.101562 L 90.132812 48.699219 C 90.703125 49.082031 91.253906 49.488281 91.789062 49.910156 C 92.546875 49.019531 93.351562 48.171875 94.199219 47.363281 C 88.925781 43.152344 82.253906 40.621094 74.996094 40.621094 C 58.011719 40.621094 44.191406 54.441406 44.191406 71.429688 C 44.191406 88.417969 58.011719 102.238281 74.996094 102.238281 C 82.253906 102.238281 88.925781 99.710938 94.199219 95.496094 C 93.351562 94.691406 92.546875 93.839844 91.789062 92.949219 C 91.25 93.371094 90.703125 93.777344 90.132812 94.160156 " fill-opacity="1" fill-rule="nonzero"/></g><path fill="#737373" d="M 89.835938 52.445312 C 85.738281 49.234375 80.59375 47.300781 74.996094 47.300781 C 61.691406 47.300781 50.867188 58.125 50.867188 71.429688 C 50.867188 84.734375 61.691406 95.558594 74.996094 95.558594 C 80.59375 95.558594 85.738281 93.625 89.835938 90.414062 C 89.613281 90.097656 89.398438 89.777344 89.1875 89.449219 C 85.277344 92.539062 80.355469 94.394531 74.996094 94.394531 C 62.332031 94.394531 52.03125 84.09375 52.03125 71.429688 C 52.03125 58.765625 62.332031 48.464844 74.996094 48.464844 C 80.355469 48.464844 85.277344 50.324219 89.1875 53.410156 C 89.398438 53.085938 89.613281 52.761719 89.835938 52.445312 " fill-opacity="1" fill-rule="nonzero"/><path fill="#737373" d="M 124.382812 56.027344 L 117.132812 68.574219 L 109.886719 56.027344 L 104.617188 56.027344 L 114.703125 73.5 L 108.449219 73.5 L 108.449219 76.425781 L 114.847656 76.425781 L 114.847656 78.832031 L 108.449219 78.832031 L 108.449219 81.757812 L 114.847656 81.757812 L 114.847656 86.832031 L 119.417969 86.832031 L 119.417969 81.757812 L 125.820312 81.757812 L 125.820312 78.832031 L 119.417969 78.832031 L 119.417969 76.425781 L 125.820312 76.425781 L 125.820312 73.5 L 119.566406 73.5 L 129.648438 56.027344 L 124.382812 56.027344 " fill-opacity="1" fill-rule="nonzero"/></svg>