<svg xmlns="http://www.w3.org/2000/svg" xmlns:xlink="http://www.w3.org/1999/xlink" width="500" zoomAndPan="magnify" viewBox="0 0 375 149.999998" height="200" preserveAspectRatio="xMidYMid meet" version="1.0"><defs><g/><clipPath id="af16eaf27d"><path d="M 8.757812 36 L 85 36 L 85 117.613281 L 8.757812 117.613281 Z M 8.757812 36 " clip-rule="nonzero"/></clipPath></defs><path fill="#1ed891" d="M 60.269531 66.367188 C 61.730469 67.808594 64.089844 67.796875 65.539062 66.34375 C 66.988281 64.890625 66.976562 62.546875 65.515625 61.109375 C 56.769531 52.5 42.605469 52.5625 33.9375 61.25 C 25.273438 69.941406 25.339844 84.007812 34.082031 92.617188 C 38.457031 96.921875 44.183594 99.058594 49.902344 99.03125 C 55.617188 99.007812 61.328125 96.816406 65.660156 92.472656 C 67.109375 91.023438 67.097656 88.679688 65.636719 87.238281 C 64.175781 85.800781 61.816406 85.8125 60.367188 87.261719 C 54.59375 93.050781 45.15625 93.09375 39.332031 87.359375 C 33.503906 81.621094 33.460938 72.25 39.234375 66.460938 C 45.007812 60.675781 54.441406 60.632812 60.269531 66.367188 Z M 60.269531 66.367188 " fill-opacity="1" fill-rule="nonzero"/><g clip-path="url(#af16eaf27d)"><path fill="#1ed891" d="M 84.3125 92.410156 C 84.292969 87.46875 82.332031 82.828125 78.796875 79.347656 C 77.335938 77.910156 77.328125 75.5625 78.773438 74.113281 C 86.003906 66.863281 85.949219 55.121094 78.652344 47.9375 C 62.597656 32.136719 36.589844 32.253906 20.679688 48.203125 C 12.972656 55.929688 8.757812 66.171875 8.808594 77.050781 C 8.855469 87.925781 13.167969 98.132812 20.945312 105.789062 C 28.972656 113.691406 39.488281 117.613281 49.984375 117.5625 C 60.480469 117.515625 70.960938 113.5 78.914062 105.523438 C 82.421875 102.011719 84.335938 97.355469 84.3125 92.410156 Z M 73.621094 100.3125 C 60.605469 113.363281 39.328125 113.457031 26.191406 100.53125 C 19.828125 94.265625 16.300781 85.914062 16.261719 77.015625 C 16.21875 68.117188 19.667969 59.734375 25.972656 53.414062 C 38.988281 40.363281 60.269531 40.265625 73.40625 53.195312 C 77.785156 57.507812 77.816406 64.554688 73.476562 68.902344 C 69.140625 73.25 69.171875 80.296875 73.550781 84.605469 C 75.671875 86.695312 76.84375 89.480469 76.859375 92.445312 C 76.875 95.410156 75.726562 98.207031 73.621094 100.3125 " fill-opacity="1" fill-rule="nonzero"/></g><path fill="#1ed891" d="M 49.257812 82.878906 C 48.859375 82.878906 48.464844 82.839844 48.074219 82.761719 C 47.6875 82.683594 47.308594 82.570312 46.941406 82.417969 C 46.574219 82.269531 46.222656 82.082031 45.894531 81.863281 C 45.5625 81.644531 45.257812 81.394531 44.976562 81.117188 C 44.695312 80.835938 44.445312 80.53125 44.222656 80.203125 C 44.003906 79.875 43.816406 79.53125 43.664062 79.164062 C 43.511719 78.800781 43.394531 78.421875 43.320312 78.035156 C 43.242188 77.648438 43.203125 77.257812 43.203125 76.863281 C 43.203125 76.46875 43.242188 76.078125 43.320312 75.6875 C 43.394531 75.300781 43.511719 74.925781 43.664062 74.5625 C 43.816406 74.195312 44.003906 73.851562 44.222656 73.519531 C 44.445312 73.191406 44.695312 72.890625 44.976562 72.609375 C 45.257812 72.332031 45.5625 72.082031 45.894531 71.863281 C 46.222656 71.640625 46.574219 71.457031 46.941406 71.304688 C 47.308594 71.15625 47.6875 71.039062 48.074219 70.964844 C 48.464844 70.886719 48.859375 70.847656 49.257812 70.847656 C 49.65625 70.847656 50.046875 70.886719 50.4375 70.964844 C 50.828125 71.039062 51.207031 71.15625 51.574219 71.304688 C 51.941406 71.457031 52.289062 71.640625 52.621094 71.863281 C 52.953125 72.082031 53.257812 72.332031 53.539062 72.609375 C 53.820312 72.890625 54.070312 73.191406 54.292969 73.519531 C 54.511719 73.851562 54.699219 74.195312 54.851562 74.5625 C 55.003906 74.925781 55.117188 75.300781 55.195312 75.6875 C 55.273438 76.078125 55.3125 76.46875 55.3125 76.863281 C 55.3125 77.257812 55.273438 77.648438 55.195312 78.035156 C 55.117188 78.421875 55.003906 78.800781 54.851562 79.164062 C 54.699219 79.53125 54.511719 79.875 54.292969 80.203125 C 54.070312 80.53125 53.820312 80.835938 53.539062 81.117188 C 53.257812 81.394531 52.953125 81.644531 52.621094 81.863281 C 52.289062 82.082031 51.941406 82.269531 51.574219 82.417969 C 51.207031 82.570312 50.828125 82.683594 50.4375 82.761719 C 50.046875 82.839844 49.65625 82.878906 49.257812 82.878906 Z M 49.257812 82.878906 " fill-opacity="1" fill-rule="nonzero"/><g fill="#ffffff" fill-opacity="1"><g transform="translate(96.128113, 91.471908)"><g><path d="M 10.6875 0 C 8.195312 0 6.226562 -0.722656 4.78125 -2.171875 C 3.34375 -3.617188 2.625 -5.609375 2.625 -8.140625 C 2.625 -9.148438 2.742188 -10.234375 2.984375 -11.390625 C 3.222656 -12.546875 3.539062 -13.523438 3.9375 -14.328125 L 9.265625 -14.328125 C 8.859375 -12.578125 8.65625 -10.8125 8.65625 -9.03125 C 8.65625 -7.78125 9.003906 -6.769531 9.703125 -6 C 10.398438 -5.238281 11.320312 -4.859375 12.46875 -4.859375 L 25.609375 -4.859375 L 25.609375 -20.03125 L 31.65625 -20.03125 L 31.65625 -4.859375 L 36.90625 -4.859375 C 37.039062 -4.859375 37.109375 -4.804688 37.109375 -4.703125 L 37.109375 -0.203125 C 37.109375 -0.0664062 37.039062 0 36.90625 0 Z M 13.625 -20.0625 C 12.800781 -20.0625 12.144531 -20.320312 11.65625 -20.84375 C 11.164062 -21.363281 10.921875 -22.070312 10.921875 -22.96875 C 10.921875 -23.875 11.160156 -24.585938 11.640625 -25.109375 C 12.117188 -25.628906 12.78125 -25.890625 13.625 -25.890625 C 14.457031 -25.890625 15.109375 -25.628906 15.578125 -25.109375 C 16.054688 -24.597656 16.296875 -23.882812 16.296875 -22.96875 C 16.296875 -22.039062 16.050781 -21.320312 15.5625 -20.8125 C 15.070312 -20.3125 14.425781 -20.0625 13.625 -20.0625 Z M 20.5 -20.0625 C 19.675781 -20.0625 19.019531 -20.320312 18.53125 -20.84375 C 18.039062 -21.363281 17.796875 -22.070312 17.796875 -22.96875 C 17.796875 -23.875 18.035156 -24.585938 18.515625 -25.109375 C 18.992188 -25.628906 19.65625 -25.890625 20.5 -25.890625 C 21.34375 -25.890625 22 -25.628906 22.46875 -25.109375 C 22.945312 -24.585938 23.1875 -23.875 23.1875 -22.96875 C 23.1875 -22.070312 22.9375 -21.363281 22.4375 -20.84375 C 21.945312 -20.320312 21.300781 -20.0625 20.5 -20.0625 Z M 20.5 -20.0625 "/></g></g></g><g fill="#ffffff" fill-opacity="1"><g transform="translate(132.84555, 91.471908)"><g><path d="M 42.4375 -4.859375 C 42.582031 -4.859375 42.65625 -4.804688 42.65625 -4.703125 L 42.65625 -0.203125 C 42.65625 -0.0664062 42.582031 0 42.4375 0 L 28.765625 0 C 26.492188 0 24.378906 -1.015625 22.421875 -3.046875 C 20.910156 -1.015625 18.660156 0 15.671875 0 L -0.203125 0 C -0.328125 0 -0.390625 -0.0664062 -0.390625 -0.203125 L -0.390625 -4.703125 C -0.390625 -4.804688 -0.328125 -4.859375 -0.203125 -4.859375 L 4.859375 -4.859375 L 4.859375 -16.875 L 10.890625 -16.875 L 10.890625 -4.859375 L 14.328125 -4.859375 C 15.671875 -4.859375 16.65625 -5.226562 17.28125 -5.96875 C 17.90625 -6.71875 18.21875 -7.910156 18.21875 -9.546875 L 18.21875 -16.875 L 24.25 -16.875 L 24.25 -9.0625 C 24.25 -8.40625 24.207031 -7.800781 24.125 -7.25 C 24.78125 -6.363281 25.4375 -5.742188 26.09375 -5.390625 C 26.757812 -5.035156 27.613281 -4.859375 28.65625 -4.859375 L 31.15625 -4.859375 L 31.15625 -20.03125 L 37.1875 -20.03125 L 37.1875 -4.859375 Z M 42.4375 -4.859375 "/></g></g></g><g fill="#ffffff" fill-opacity="1"><g transform="translate(175.096293, 91.471908)"><g><path d="M 27.71875 -4.859375 C 27.851562 -4.859375 27.921875 -4.804688 27.921875 -4.703125 L 27.921875 -0.203125 C 27.921875 -0.0664062 27.851562 0 27.71875 0 L -0.203125 0 C -0.328125 0 -0.390625 -0.0664062 -0.390625 -0.203125 L -0.390625 -4.703125 C -0.390625 -4.804688 -0.328125 -4.859375 -0.203125 -4.859375 L 5.59375 -4.859375 C 4.289062 -6.398438 3.640625 -8.179688 3.640625 -10.203125 C 3.640625 -13.210938 4.675781 -15.601562 6.75 -17.375 C 8.832031 -19.144531 11.734375 -20.03125 15.453125 -20.03125 L 22.671875 -20.03125 L 22.671875 -4.859375 Z M 16.640625 -4.859375 L 16.640625 -15.171875 L 15.578125 -15.171875 C 13.753906 -15.171875 12.34375 -14.71875 11.34375 -13.8125 C 10.34375 -12.914062 9.84375 -11.601562 9.84375 -9.875 C 9.84375 -8.269531 10.328125 -7.03125 11.296875 -6.15625 C 12.265625 -5.289062 13.660156 -4.859375 15.484375 -4.859375 Z M 15.015625 -23.515625 C 14.171875 -23.515625 13.503906 -23.773438 13.015625 -24.296875 C 12.535156 -24.816406 12.296875 -25.523438 12.296875 -26.421875 C 12.296875 -27.328125 12.535156 -28.039062 13.015625 -28.5625 C 13.492188 -29.082031 14.160156 -29.34375 15.015625 -29.34375 C 15.828125 -29.34375 16.472656 -29.082031 16.953125 -28.5625 C 17.441406 -28.050781 17.6875 -27.335938 17.6875 -26.421875 C 17.6875 -25.523438 17.4375 -24.816406 16.9375 -24.296875 C 16.445312 -23.773438 15.804688 -23.515625 15.015625 -23.515625 Z M 15.015625 -23.515625 "/></g></g></g><g fill="#ffffff" fill-opacity="1"><g transform="translate(202.624496, 91.471908)"><g><path d="M -0.203125 0 C -0.328125 0 -0.390625 -0.0664062 -0.390625 -0.203125 L -0.390625 -4.703125 C -0.390625 -4.804688 -0.328125 -4.859375 -0.203125 -4.859375 L 4.859375 -4.859375 L 4.859375 -20.03125 L 10.890625 -20.03125 L 10.890625 0 Z M 7.828125 -23.515625 C 6.984375 -23.515625 6.316406 -23.773438 5.828125 -24.296875 C 5.347656 -24.816406 5.109375 -25.523438 5.109375 -26.421875 C 5.109375 -27.328125 5.347656 -28.039062 5.828125 -28.5625 C 6.304688 -29.082031 6.972656 -29.34375 7.828125 -29.34375 C 8.640625 -29.34375 9.285156 -29.082031 9.765625 -28.5625 C 10.253906 -28.050781 10.5 -27.335938 10.5 -26.421875 C 10.5 -25.523438 10.25 -24.816406 9.75 -24.296875 C 9.257812 -23.773438 8.617188 -23.515625 7.828125 -23.515625 Z M 7.828125 -23.515625 "/></g></g></g><g fill="#ffffff" fill-opacity="1"><g transform="translate(216.951813, 91.471908)"><g><path d="M 4.046875 -30.75 L 10.078125 -30.75 L 10.078125 0 L 4.046875 0 Z M 4.046875 -30.75 "/></g></g></g><g fill="#1ed891" fill-opacity="1"><g transform="translate(231.095177, 91.471908)"><g/></g></g><g fill="#1ed891" fill-opacity="1"><g transform="translate(244.849394, 91.471908)"><g><path d="M 27 -4.859375 C 27.125 -4.859375 27.1875 -4.804688 27.1875 -4.703125 L 27.1875 -0.203125 C 27.1875 -0.0664062 27.125 0 27 0 L 21.9375 0 C 21.9375 3.082031 21.003906 5.472656 19.140625 7.171875 C 17.273438 8.867188 14.644531 9.71875 11.25 9.71875 C 9.414062 9.71875 7.828125 9.578125 6.484375 9.296875 C 5.148438 9.015625 3.863281 8.503906 2.625 7.765625 L 4.984375 3.359375 C 6.078125 3.921875 7.109375 4.316406 8.078125 4.546875 C 9.054688 4.785156 10.070312 4.90625 11.125 4.90625 C 12.65625 4.90625 13.832031 4.484375 14.65625 3.640625 C 15.488281 2.804688 15.90625 1.660156 15.90625 0.203125 L 15.90625 0 L 11.890625 0 C 9.003906 0 6.785156 -0.816406 5.234375 -2.453125 C 3.679688 -4.085938 2.90625 -6.410156 2.90625 -9.421875 C 2.90625 -11.554688 3.4375 -13.429688 4.5 -15.046875 C 5.570312 -16.660156 7.082031 -17.894531 9.03125 -18.75 C 10.976562 -19.601562 13.226562 -20.03125 15.78125 -20.03125 L 21.9375 -20.03125 L 21.9375 -4.859375 Z M 15.90625 -4.859375 L 15.90625 -15.171875 L 14.609375 -15.171875 C 12.878906 -15.171875 11.53125 -14.679688 10.5625 -13.703125 C 9.59375 -12.734375 9.109375 -11.359375 9.109375 -9.578125 C 9.109375 -7.960938 9.4375 -6.769531 10.09375 -6 C 10.75 -5.238281 11.757812 -4.859375 13.125 -4.859375 Z M 15.90625 -4.859375 "/></g></g></g><g fill="#1ed891" fill-opacity="1"><g transform="translate(271.646404, 91.471908)"><g><path d="M -0.203125 0 C -0.328125 0 -0.390625 -0.0664062 -0.390625 -0.203125 L -0.390625 -4.703125 C -0.390625 -4.804688 -0.328125 -4.859375 -0.203125 -4.859375 L 6.0625 -4.859375 L 6.0625 -20.03125 L 12.09375 -20.03125 L 12.09375 -4.859375 L 18.171875 -4.859375 C 18.304688 -4.859375 18.375 -4.804688 18.375 -4.703125 L 18.375 -0.203125 C 18.375 -0.0664062 18.304688 0 18.171875 0 Z M 5.296875 -23.515625 C 4.472656 -23.515625 3.816406 -23.773438 3.328125 -24.296875 C 2.835938 -24.816406 2.59375 -25.523438 2.59375 -26.421875 C 2.59375 -27.328125 2.832031 -28.039062 3.3125 -28.5625 C 3.789062 -29.082031 4.453125 -29.34375 5.296875 -29.34375 C 6.128906 -29.34375 6.78125 -29.082031 7.25 -28.5625 C 7.726562 -28.050781 7.96875 -27.335938 7.96875 -26.421875 C 7.96875 -25.492188 7.722656 -24.773438 7.234375 -24.265625 C 6.742188 -23.765625 6.097656 -23.515625 5.296875 -23.515625 Z M 12.171875 -23.515625 C 11.347656 -23.515625 10.691406 -23.773438 10.203125 -24.296875 C 9.710938 -24.816406 9.46875 -25.523438 9.46875 -26.421875 C 9.46875 -27.328125 9.707031 -28.039062 10.1875 -28.5625 C 10.664062 -29.082031 11.328125 -29.34375 12.171875 -29.34375 C 13.015625 -29.34375 13.671875 -29.082031 14.140625 -28.5625 C 14.617188 -28.039062 14.859375 -27.328125 14.859375 -26.421875 C 14.859375 -25.523438 14.609375 -24.816406 14.109375 -24.296875 C 13.617188 -23.773438 12.972656 -23.515625 12.171875 -23.515625 Z M 12.171875 -23.515625 "/></g></g></g><g fill="#1ed891" fill-opacity="1"><g transform="translate(289.609894, 91.471908)"><g><path d="M 16.140625 -4.859375 C 16.273438 -4.859375 16.34375 -4.804688 16.34375 -4.703125 L 16.34375 -0.203125 C 16.34375 -0.0664062 16.273438 0 16.140625 0 L -0.203125 0 C -0.328125 0 -0.390625 -0.0664062 -0.390625 -0.203125 L -0.390625 -4.703125 C -0.390625 -4.804688 -0.328125 -4.859375 -0.203125 -4.859375 L 4.859375 -4.859375 L 4.859375 -20.03125 L 10.890625 -20.03125 L 10.890625 -4.859375 Z M 7.75 10.125 C 6.90625 10.125 6.238281 9.863281 5.75 9.34375 C 5.269531 8.820312 5.03125 8.113281 5.03125 7.21875 C 5.03125 6.300781 5.269531 5.582031 5.75 5.0625 C 6.226562 4.539062 6.894531 4.28125 7.75 4.28125 C 8.5625 4.28125 9.207031 4.535156 9.6875 5.046875 C 10.175781 5.566406 10.421875 6.289062 10.421875 7.21875 C 10.421875 8.113281 10.171875 8.820312 9.671875 9.34375 C 9.179688 9.863281 8.539062 10.125 7.75 10.125 Z M 7.75 10.125 "/></g></g></g><g fill="#1ed891" fill-opacity="1"><g transform="translate(305.557679, 91.471908)"><g><path d="M -0.203125 0 C -0.328125 0 -0.390625 -0.0664062 -0.390625 -0.203125 L -0.390625 -4.703125 C -0.390625 -4.804688 -0.328125 -4.859375 -0.203125 -4.859375 L 6.875 -4.859375 L 6.875 -20.03125 L 12.90625 -20.03125 L 12.90625 0 Z M 3.0625 10.125 C 2.238281 10.125 1.582031 9.863281 1.09375 9.34375 C 0.601562 8.820312 0.359375 8.113281 0.359375 7.21875 C 0.359375 6.300781 0.597656 5.582031 1.078125 5.0625 C 1.554688 4.539062 2.21875 4.28125 3.0625 4.28125 C 3.894531 4.28125 4.546875 4.535156 5.015625 5.046875 C 5.492188 5.566406 5.734375 6.289062 5.734375 7.21875 C 5.734375 8.132812 5.488281 8.847656 5 9.359375 C 4.507812 9.867188 3.863281 10.125 3.0625 10.125 Z M 9.9375 10.125 C 9.113281 10.125 8.457031 9.863281 7.96875 9.34375 C 7.476562 8.820312 7.234375 8.113281 7.234375 7.21875 C 7.234375 6.300781 7.472656 5.582031 7.953125 5.0625 C 8.429688 4.539062 9.09375 4.28125 9.9375 4.28125 C 10.78125 4.28125 11.4375 4.539062 11.90625 5.0625 C 12.382812 5.582031 12.625 6.300781 12.625 7.21875 C 12.625 8.113281 12.375 8.820312 11.875 9.34375 C 11.382812 9.863281 10.738281 10.125 9.9375 10.125 Z M 9.9375 10.125 "/></g></g></g><g fill="#1ed891" fill-opacity="1"><g transform="translate(321.9007, 91.471908)"><g><path d="M 19.546875 -4.859375 C 19.671875 -4.859375 19.734375 -4.804688 19.734375 -4.703125 L 19.734375 -0.203125 C 19.734375 -0.0664062 19.671875 0 19.546875 0 L 14.28125 0 L 14.28125 0.65625 C 14.28125 3.4375 13.515625 5.640625 11.984375 7.265625 C 10.453125 8.898438 8.398438 9.71875 5.828125 9.71875 C 4.441406 9.71875 3.171875 9.550781 2.015625 9.21875 C 0.867188 8.894531 -0.34375 8.304688 -1.625 7.453125 L 0.8125 3.515625 C 1.519531 3.960938 2.144531 4.269531 2.6875 4.4375 C 3.238281 4.613281 3.894531 4.703125 4.65625 4.703125 C 5.738281 4.703125 6.609375 4.289062 7.265625 3.46875 C 7.929688 2.644531 8.265625 1.609375 8.265625 0.359375 L 8.265625 -20.03125 L 14.28125 -20.03125 L 14.28125 -4.859375 Z M 19.546875 -4.859375 "/></g></g></g><g fill="#1ed891" fill-opacity="1"><g transform="translate(341.247515, 91.471908)"><g><path d="M -0.203125 0 C -0.328125 0 -0.390625 -0.0664062 -0.390625 -0.203125 L -0.390625 -4.703125 C -0.390625 -4.804688 -0.328125 -4.859375 -0.203125 -4.859375 L 15.625 -4.859375 L 15.625 -11.359375 C 15.625 -12.992188 15.0625 -14.242188 13.9375 -15.109375 C 12.820312 -15.984375 11.238281 -16.421875 9.1875 -16.421875 L 2.3125 -16.421875 L 2.3125 -20.8125 C 3.738281 -23.820312 5.75 -26.476562 8.34375 -28.78125 C 10.945312 -31.082031 13.96875 -32.84375 17.40625 -34.0625 L 19.625 -28.65625 C 17.28125 -27.9375 15.085938 -26.882812 13.046875 -25.5 C 11.003906 -24.125 9.515625 -22.71875 8.578125 -21.28125 L 10.125 -21.28125 C 17.8125 -21.28125 21.65625 -18.226562 21.65625 -12.125 L 21.65625 0 Z M -0.203125 0 "/></g></g></g></svg>