<svg xmlns="http://www.w3.org/2000/svg" xmlns:xlink="http://www.w3.org/1999/xlink" width="500" zoomAndPan="magnify" viewBox="0 0 375 374.999991" height="500" preserveAspectRatio="xMidYMid meet" version="1.0"><defs><g/><clipPath id="e6ef65e2a8"><path d="M 34.496094 160 L 99 160 L 99 230.257812 L 34.496094 230.257812 Z M 34.496094 160 " clip-rule="nonzero"/></clipPath></defs><path fill="#1ed891" d="M 78.003906 186.652344 C 79.238281 187.878906 81.234375 187.867188 82.457031 186.632812 C 83.679688 185.398438 83.667969 183.402344 82.433594 182.179688 C 75.046875 174.851562 63.085938 174.90625 55.765625 182.300781 C 48.445312 189.691406 48.5 201.664062 55.886719 208.988281 C 59.582031 212.648438 64.417969 214.46875 69.246094 214.445312 C 74.078125 214.425781 78.898438 212.5625 82.558594 208.867188 C 83.78125 207.632812 83.773438 205.636719 82.539062 204.410156 C 81.304688 203.1875 79.3125 203.195312 78.085938 204.433594 C 73.210938 209.355469 65.238281 209.390625 60.320312 204.511719 C 55.398438 199.632812 55.359375 191.65625 60.238281 186.730469 C 65.113281 181.808594 73.082031 181.773438 78.003906 186.652344 Z M 78.003906 186.652344 " fill-opacity="1" fill-rule="nonzero"/><g clip-path="url(#e6ef65e2a8)"><path fill="#1ed891" d="M 98.3125 208.8125 C 98.296875 204.605469 96.640625 200.660156 93.65625 197.695312 C 92.421875 196.476562 92.414062 194.476562 93.632812 193.242188 C 99.742188 187.074219 99.695312 177.082031 93.53125 170.972656 C 79.972656 157.527344 58.003906 157.625 44.566406 171.195312 C 38.058594 177.769531 34.492188 186.488281 34.539062 195.742188 C 34.578125 204.996094 38.21875 213.679688 44.789062 220.195312 C 51.570312 226.917969 60.453125 230.253906 69.320312 230.214844 C 78.183594 230.171875 87.035156 226.757812 93.753906 219.96875 C 96.714844 216.984375 98.332031 213.019531 98.3125 208.8125 Z M 89.285156 215.535156 C 78.289062 226.640625 60.316406 226.722656 49.222656 215.71875 C 43.847656 210.390625 40.867188 203.285156 40.832031 195.714844 C 40.796875 188.140625 43.710938 181.007812 49.039062 175.628906 C 60.03125 164.527344 78.003906 164.445312 89.101562 175.445312 C 92.800781 179.113281 92.828125 185.109375 89.160156 188.808594 C 85.496094 192.507812 85.523438 198.503906 89.222656 202.171875 C 91.011719 203.949219 92.007812 206.316406 92.019531 208.839844 C 92.03125 211.367188 91.058594 213.742188 89.285156 215.535156 " fill-opacity="1" fill-rule="nonzero"/></g><path fill="#1ed891" d="M 68.703125 200.699219 C 68.367188 200.699219 68.035156 200.667969 67.707031 200.601562 C 67.375 200.535156 67.058594 200.441406 66.746094 200.3125 C 66.4375 200.183594 66.140625 200.023438 65.863281 199.839844 C 65.582031 199.652344 65.324219 199.4375 65.085938 199.203125 C 64.851562 198.964844 64.636719 198.707031 64.453125 198.425781 C 64.265625 198.148438 64.105469 197.851562 63.980469 197.542969 C 63.851562 197.230469 63.753906 196.910156 63.6875 196.582031 C 63.621094 196.25 63.589844 195.917969 63.589844 195.582031 C 63.589844 195.246094 63.621094 194.914062 63.6875 194.585938 C 63.753906 194.253906 63.851562 193.933594 63.980469 193.625 C 64.105469 193.3125 64.265625 193.019531 64.453125 192.738281 C 64.636719 192.460938 64.851562 192.203125 65.085938 191.964844 C 65.324219 191.726562 65.582031 191.515625 65.863281 191.328125 C 66.140625 191.140625 66.4375 190.984375 66.746094 190.855469 C 67.058594 190.726562 67.375 190.628906 67.707031 190.5625 C 68.035156 190.5 68.367188 190.464844 68.703125 190.464844 C 69.039062 190.464844 69.371094 190.5 69.703125 190.5625 C 70.03125 190.628906 70.351562 190.726562 70.660156 190.855469 C 70.972656 190.984375 71.265625 191.140625 71.542969 191.328125 C 71.824219 191.515625 72.082031 191.726562 72.320312 191.964844 C 72.558594 192.203125 72.769531 192.460938 72.957031 192.738281 C 73.140625 193.019531 73.300781 193.3125 73.429688 193.625 C 73.558594 193.933594 73.652344 194.253906 73.71875 194.585938 C 73.785156 194.914062 73.816406 195.246094 73.816406 195.582031 C 73.816406 195.917969 73.785156 196.25 73.71875 196.582031 C 73.652344 196.910156 73.558594 197.230469 73.429688 197.542969 C 73.300781 197.851562 73.140625 198.148438 72.957031 198.425781 C 72.769531 198.707031 72.558594 198.964844 72.320312 199.203125 C 72.082031 199.4375 71.824219 199.652344 71.542969 199.839844 C 71.265625 200.023438 70.972656 200.183594 70.660156 200.3125 C 70.351562 200.441406 70.03125 200.535156 69.703125 200.601562 C 69.371094 200.667969 69.039062 200.699219 68.703125 200.699219 Z M 68.703125 200.699219 " fill-opacity="1" fill-rule="nonzero"/><g fill="#ffffff" fill-opacity="1"><g transform="translate(108.336707, 207.917374)"><g><path d="M 9.078125 0 C 6.960938 0 5.289062 -0.613281 4.0625 -1.84375 C 2.84375 -3.070312 2.234375 -4.765625 2.234375 -6.921875 C 2.234375 -7.773438 2.332031 -8.691406 2.53125 -9.671875 C 2.738281 -10.648438 3.007812 -11.484375 3.34375 -12.171875 L 7.875 -12.171875 C 7.53125 -10.679688 7.359375 -9.179688 7.359375 -7.671875 C 7.359375 -6.609375 7.648438 -5.75 8.234375 -5.09375 C 8.828125 -4.445312 9.613281 -4.125 10.59375 -4.125 L 21.75 -4.125 L 21.75 -17.015625 L 26.890625 -17.015625 L 26.890625 -4.125 L 31.359375 -4.125 C 31.460938 -4.125 31.515625 -4.082031 31.515625 -4 L 31.515625 -0.171875 C 31.515625 -0.0546875 31.460938 0 31.359375 0 Z M 11.578125 -17.03125 C 10.878906 -17.03125 10.320312 -17.25 9.90625 -17.6875 C 9.488281 -18.132812 9.28125 -18.738281 9.28125 -19.5 C 9.28125 -20.269531 9.484375 -20.875 9.890625 -21.3125 C 10.304688 -21.757812 10.867188 -21.984375 11.578125 -21.984375 C 12.285156 -21.984375 12.835938 -21.765625 13.234375 -21.328125 C 13.640625 -20.890625 13.84375 -20.28125 13.84375 -19.5 C 13.84375 -18.71875 13.632812 -18.109375 13.21875 -17.671875 C 12.8125 -17.242188 12.265625 -17.03125 11.578125 -17.03125 Z M 17.421875 -17.03125 C 16.710938 -17.03125 16.148438 -17.25 15.734375 -17.6875 C 15.328125 -18.132812 15.125 -18.738281 15.125 -19.5 C 15.125 -20.269531 15.328125 -20.875 15.734375 -21.3125 C 16.140625 -21.757812 16.703125 -21.984375 17.421875 -21.984375 C 18.140625 -21.984375 18.695312 -21.757812 19.09375 -21.3125 C 19.5 -20.875 19.703125 -20.269531 19.703125 -19.5 C 19.703125 -18.738281 19.492188 -18.132812 19.078125 -17.6875 C 18.660156 -17.25 18.109375 -17.03125 17.421875 -17.03125 Z M 17.421875 -17.03125 "/></g></g></g><g fill="#ffffff" fill-opacity="1"><g transform="translate(139.519074, 207.917374)"><g><path d="M 36.046875 -4.125 C 36.171875 -4.125 36.234375 -4.082031 36.234375 -4 L 36.234375 -0.171875 C 36.234375 -0.0546875 36.171875 0 36.046875 0 L 24.4375 0 C 22.5 0 20.703125 -0.859375 19.046875 -2.578125 C 17.765625 -0.859375 15.851562 0 13.3125 0 L -0.171875 0 C -0.273438 0 -0.328125 -0.0546875 -0.328125 -0.171875 L -0.328125 -4 C -0.328125 -4.082031 -0.273438 -4.125 -0.171875 -4.125 L 4.125 -4.125 L 4.125 -14.328125 L 9.25 -14.328125 L 9.25 -4.125 L 12.171875 -4.125 C 13.304688 -4.125 14.140625 -4.441406 14.671875 -5.078125 C 15.203125 -5.710938 15.46875 -6.722656 15.46875 -8.109375 L 15.46875 -14.328125 L 20.59375 -14.328125 L 20.59375 -7.703125 C 20.59375 -7.140625 20.5625 -6.625 20.5 -6.15625 C 21.050781 -5.40625 21.609375 -4.878906 22.171875 -4.578125 C 22.734375 -4.273438 23.457031 -4.125 24.34375 -4.125 L 26.46875 -4.125 L 26.46875 -17.015625 L 31.59375 -17.015625 L 31.59375 -4.125 Z M 36.046875 -4.125 "/></g></g></g><g fill="#ffffff" fill-opacity="1"><g transform="translate(175.400614, 207.917374)"><g><path d="M 23.546875 -4.125 C 23.660156 -4.125 23.71875 -4.082031 23.71875 -4 L 23.71875 -0.171875 C 23.71875 -0.0546875 23.660156 0 23.546875 0 L -0.171875 0 C -0.273438 0 -0.328125 -0.0546875 -0.328125 -0.171875 L -0.328125 -4 C -0.328125 -4.082031 -0.273438 -4.125 -0.171875 -4.125 L 4.75 -4.125 C 3.644531 -5.4375 3.09375 -6.945312 3.09375 -8.65625 C 3.09375 -11.21875 3.972656 -13.25 5.734375 -14.75 C 7.503906 -16.257812 9.96875 -17.015625 13.125 -17.015625 L 19.25 -17.015625 L 19.25 -4.125 Z M 14.125 -4.125 L 14.125 -12.890625 L 13.21875 -12.890625 C 11.675781 -12.890625 10.476562 -12.503906 9.625 -11.734375 C 8.78125 -10.972656 8.359375 -9.859375 8.359375 -8.390625 C 8.359375 -7.023438 8.769531 -5.972656 9.59375 -5.234375 C 10.414062 -4.492188 11.601562 -4.125 13.15625 -4.125 Z M 12.765625 -19.96875 C 12.046875 -19.96875 11.476562 -20.1875 11.0625 -20.625 C 10.644531 -21.070312 10.4375 -21.675781 10.4375 -22.4375 C 10.4375 -23.207031 10.640625 -23.8125 11.046875 -24.25 C 11.460938 -24.695312 12.035156 -24.921875 12.765625 -24.921875 C 13.453125 -24.921875 14 -24.703125 14.40625 -24.265625 C 14.820312 -23.828125 15.03125 -23.21875 15.03125 -22.4375 C 15.03125 -21.675781 14.816406 -21.070312 14.390625 -20.625 C 13.972656 -20.1875 13.429688 -19.96875 12.765625 -19.96875 Z M 12.765625 -19.96875 "/></g></g></g><g fill="#ffffff" fill-opacity="1"><g transform="translate(198.779003, 207.917374)"><g><path d="M -0.171875 0 C -0.273438 0 -0.328125 -0.0546875 -0.328125 -0.171875 L -0.328125 -4 C -0.328125 -4.082031 -0.273438 -4.125 -0.171875 -4.125 L 4.125 -4.125 L 4.125 -17.015625 L 9.25 -17.015625 L 9.25 0 Z M 6.65625 -19.96875 C 5.9375 -19.96875 5.367188 -20.1875 4.953125 -20.625 C 4.535156 -21.070312 4.328125 -21.675781 4.328125 -22.4375 C 4.328125 -23.207031 4.53125 -23.8125 4.9375 -24.25 C 5.351562 -24.695312 5.925781 -24.921875 6.65625 -24.921875 C 7.34375 -24.921875 7.890625 -24.703125 8.296875 -24.265625 C 8.710938 -23.828125 8.921875 -23.21875 8.921875 -22.4375 C 8.921875 -21.675781 8.707031 -21.070312 8.28125 -20.625 C 7.863281 -20.1875 7.320312 -19.96875 6.65625 -19.96875 Z M 6.65625 -19.96875 "/></g></g></g><g fill="#ffffff" fill-opacity="1"><g transform="translate(210.94651, 207.917374)"><g><path d="M 3.4375 -26.109375 L 8.5625 -26.109375 L 8.5625 0 L 3.4375 0 Z M 3.4375 -26.109375 "/></g></g></g><g fill="#1ed891" fill-opacity="1"><g transform="translate(222.957794, 207.917374)"><g/></g></g><g fill="#1ed891" fill-opacity="1"><g transform="translate(234.638594, 207.917374)"><g><path d="M 22.921875 -4.125 C 23.035156 -4.125 23.09375 -4.082031 23.09375 -4 L 23.09375 -0.171875 C 23.09375 -0.0546875 23.035156 0 22.921875 0 L 18.625 0 C 18.625 2.613281 17.832031 4.644531 16.25 6.09375 C 14.664062 7.539062 12.429688 8.265625 9.546875 8.265625 C 7.992188 8.265625 6.648438 8.140625 5.515625 7.890625 C 4.378906 7.648438 3.285156 7.21875 2.234375 6.59375 L 4.234375 2.859375 C 5.160156 3.335938 6.035156 3.671875 6.859375 3.859375 C 7.691406 4.054688 8.554688 4.15625 9.453125 4.15625 C 10.742188 4.15625 11.742188 3.800781 12.453125 3.09375 C 13.160156 2.382812 13.515625 1.410156 13.515625 0.171875 L 13.515625 0 L 10.109375 0 C 7.648438 0 5.757812 -0.691406 4.4375 -2.078125 C 3.125 -3.460938 2.46875 -5.4375 2.46875 -8 C 2.46875 -9.8125 2.921875 -11.40625 3.828125 -12.78125 C 4.734375 -14.15625 6.015625 -15.203125 7.671875 -15.921875 C 9.328125 -16.648438 11.238281 -17.015625 13.40625 -17.015625 L 18.625 -17.015625 L 18.625 -4.125 Z M 13.515625 -4.125 L 13.515625 -12.890625 L 12.40625 -12.890625 C 10.9375 -12.890625 9.789062 -12.472656 8.96875 -11.640625 C 8.144531 -10.816406 7.734375 -9.648438 7.734375 -8.140625 C 7.734375 -6.765625 8.015625 -5.75 8.578125 -5.09375 C 9.140625 -4.445312 9.992188 -4.125 11.140625 -4.125 Z M 13.515625 -4.125 "/></g></g></g><g fill="#1ed891" fill-opacity="1"><g transform="translate(257.396016, 207.917374)"><g><path d="M -0.171875 0 C -0.273438 0 -0.328125 -0.0546875 -0.328125 -0.171875 L -0.328125 -4 C -0.328125 -4.082031 -0.273438 -4.125 -0.171875 -4.125 L 5.15625 -4.125 L 5.15625 -17.015625 L 10.265625 -17.015625 L 10.265625 -4.125 L 15.4375 -4.125 C 15.550781 -4.125 15.609375 -4.082031 15.609375 -4 L 15.609375 -0.171875 C 15.609375 -0.0546875 15.550781 0 15.4375 0 Z M 4.5 -19.96875 C 3.800781 -19.96875 3.242188 -20.1875 2.828125 -20.625 C 2.410156 -21.070312 2.203125 -21.675781 2.203125 -22.4375 C 2.203125 -23.207031 2.40625 -23.8125 2.8125 -24.25 C 3.226562 -24.695312 3.789062 -24.921875 4.5 -24.921875 C 5.207031 -24.921875 5.757812 -24.703125 6.15625 -24.265625 C 6.5625 -23.828125 6.765625 -23.21875 6.765625 -22.4375 C 6.765625 -21.65625 6.554688 -21.046875 6.140625 -20.609375 C 5.734375 -20.179688 5.1875 -19.96875 4.5 -19.96875 Z M 10.34375 -19.96875 C 9.632812 -19.96875 9.070312 -20.1875 8.65625 -20.625 C 8.25 -21.070312 8.046875 -21.675781 8.046875 -22.4375 C 8.046875 -23.207031 8.25 -23.8125 8.65625 -24.25 C 9.0625 -24.695312 9.625 -24.921875 10.34375 -24.921875 C 11.0625 -24.921875 11.617188 -24.695312 12.015625 -24.25 C 12.421875 -23.8125 12.625 -23.207031 12.625 -22.4375 C 12.625 -21.675781 12.414062 -21.070312 12 -20.625 C 11.582031 -20.1875 11.03125 -19.96875 10.34375 -19.96875 Z M 10.34375 -19.96875 "/></g></g></g><g fill="#1ed891" fill-opacity="1"><g transform="translate(272.65155, 207.917374)"><g><path d="M 13.71875 -4.125 C 13.820312 -4.125 13.875 -4.082031 13.875 -4 L 13.875 -0.171875 C 13.875 -0.0546875 13.820312 0 13.71875 0 L -0.171875 0 C -0.273438 0 -0.328125 -0.0546875 -0.328125 -0.171875 L -0.328125 -4 C -0.328125 -4.082031 -0.273438 -4.125 -0.171875 -4.125 L 4.125 -4.125 L 4.125 -17.015625 L 9.25 -17.015625 L 9.25 -4.125 Z M 6.578125 8.59375 C 5.859375 8.59375 5.289062 8.367188 4.875 7.921875 C 4.457031 7.484375 4.25 6.882812 4.25 6.125 C 4.25 5.351562 4.453125 4.742188 4.859375 4.296875 C 5.273438 3.859375 5.847656 3.640625 6.578125 3.640625 C 7.265625 3.640625 7.8125 3.859375 8.21875 4.296875 C 8.632812 4.734375 8.84375 5.34375 8.84375 6.125 C 8.84375 6.882812 8.628906 7.484375 8.203125 7.921875 C 7.785156 8.367188 7.242188 8.59375 6.578125 8.59375 Z M 6.578125 8.59375 "/></g></g></g><g fill="#1ed891" fill-opacity="1"><g transform="translate(286.195243, 207.917374)"><g><path d="M -0.171875 0 C -0.273438 0 -0.328125 -0.0546875 -0.328125 -0.171875 L -0.328125 -4 C -0.328125 -4.082031 -0.273438 -4.125 -0.171875 -4.125 L 5.84375 -4.125 L 5.84375 -17.015625 L 10.953125 -17.015625 L 10.953125 0 Z M 2.59375 8.59375 C 1.894531 8.59375 1.335938 8.367188 0.921875 7.921875 C 0.503906 7.484375 0.296875 6.882812 0.296875 6.125 C 0.296875 5.351562 0.5 4.742188 0.90625 4.296875 C 1.320312 3.859375 1.882812 3.640625 2.59375 3.640625 C 3.300781 3.640625 3.851562 3.859375 4.25 4.296875 C 4.65625 4.734375 4.859375 5.34375 4.859375 6.125 C 4.859375 6.90625 4.648438 7.507812 4.234375 7.9375 C 3.828125 8.375 3.28125 8.59375 2.59375 8.59375 Z M 8.4375 8.59375 C 7.726562 8.59375 7.164062 8.367188 6.75 7.921875 C 6.34375 7.484375 6.140625 6.882812 6.140625 6.125 C 6.140625 5.351562 6.34375 4.742188 6.75 4.296875 C 7.15625 3.859375 7.71875 3.640625 8.4375 3.640625 C 9.15625 3.640625 9.710938 3.859375 10.109375 4.296875 C 10.515625 4.742188 10.71875 5.351562 10.71875 6.125 C 10.71875 6.882812 10.507812 7.484375 10.09375 7.921875 C 9.675781 8.367188 9.125 8.59375 8.4375 8.59375 Z M 8.4375 8.59375 "/></g></g></g><g fill="#1ed891" fill-opacity="1"><g transform="translate(300.074591, 207.917374)"><g><path d="M 16.59375 -4.125 C 16.707031 -4.125 16.765625 -4.082031 16.765625 -4 L 16.765625 -0.171875 C 16.765625 -0.0546875 16.707031 0 16.59375 0 L 12.140625 0 L 12.140625 0.546875 C 12.140625 2.910156 11.484375 4.785156 10.171875 6.171875 C 8.867188 7.566406 7.128906 8.265625 4.953125 8.265625 C 3.773438 8.265625 2.695312 8.125 1.71875 7.84375 C 0.738281 7.5625 -0.289062 7.054688 -1.375 6.328125 L 0.6875 2.984375 C 1.289062 3.367188 1.820312 3.632812 2.28125 3.78125 C 2.75 3.925781 3.3125 4 3.96875 4 C 4.882812 4 5.617188 3.644531 6.171875 2.9375 C 6.734375 2.238281 7.015625 1.359375 7.015625 0.296875 L 7.015625 -17.015625 L 12.140625 -17.015625 L 12.140625 -4.125 Z M 16.59375 -4.125 "/></g></g></g><g fill="#1ed891" fill-opacity="1"><g transform="translate(316.504918, 207.917374)"><g><path d="M -0.171875 0 C -0.273438 0 -0.328125 -0.0546875 -0.328125 -0.171875 L -0.328125 -4 C -0.328125 -4.082031 -0.273438 -4.125 -0.171875 -4.125 L 13.28125 -4.125 L 13.28125 -9.65625 C 13.28125 -11.039062 12.800781 -12.101562 11.84375 -12.84375 C 10.894531 -13.582031 9.550781 -13.953125 7.8125 -13.953125 L 1.96875 -13.953125 L 1.96875 -17.671875 C 3.175781 -20.234375 4.882812 -22.488281 7.09375 -24.4375 C 9.300781 -26.394531 11.863281 -27.894531 14.78125 -28.9375 L 16.671875 -24.34375 C 14.671875 -23.738281 12.800781 -22.847656 11.0625 -21.671875 C 9.332031 -20.492188 8.070312 -19.296875 7.28125 -18.078125 L 8.59375 -18.078125 C 15.125 -18.078125 18.390625 -15.488281 18.390625 -10.3125 L 18.390625 0 Z M -0.171875 0 "/></g></g></g></svg>